<svg width="403" height="259" viewBox="0 0 403 259" fill="none" xmlns="http://www.w3.org/2000/svg">
<path d="M166.343 15.0334C166.137 15.0873 165.09 15.3567 164.005 15.6261C162.92 15.9135 161.163 16.2368 160.078 16.3446C158.544 16.5062 157.965 16.632 157.46 16.9732C157.104 17.2067 155.702 17.7635 154.355 18.2125C146.819 20.6912 141.471 23.7625 136.796 28.2708C133.242 31.7193 130.138 36.1737 129.876 38.2213C129.82 38.7781 129.427 40.0713 129.016 41.0771C128.38 42.6756 128.287 43.0888 128.287 44.4179C128.287 45.6392 128.156 46.3218 127.632 47.9742C127.034 49.8781 126.978 50.1834 126.978 52.4106C126.978 55.1766 127.239 57.6912 127.707 59.7208C127.913 60.5111 128.118 61.9659 128.193 62.9538C128.287 64.3548 128.492 65.2708 129.147 67.2106C129.764 69.0426 129.97 69.9587 129.97 70.8028C129.97 71.7907 130.063 72.0601 130.624 72.9223C131.111 73.6407 131.279 74.0897 131.279 74.6825C131.279 75.5087 131.466 75.9577 132.12 76.7121C132.345 76.9815 132.625 77.6999 132.756 78.3286C132.887 78.9931 133.86 81.4179 135.019 84.0043C136.234 86.6985 137.132 88.9795 137.263 89.6441C137.394 90.3626 137.749 91.1888 138.198 91.9072C138.647 92.6436 138.965 93.38 139.04 93.9907C139.227 95.3198 142.985 103.313 147.38 111.736C148.296 113.515 149.138 115.382 149.25 115.903C149.362 116.442 150.017 117.825 150.765 119.136C151.681 120.753 152.111 121.705 152.205 122.369C152.298 122.98 152.542 123.573 152.916 124.076C153.308 124.597 153.57 125.207 153.72 126.033C153.851 126.824 154.112 127.47 154.486 127.973C154.879 128.494 155.104 129.105 155.272 130.057C155.44 130.973 155.683 131.619 156.001 132.032C156.3 132.41 156.581 133.074 156.712 133.793C156.861 134.619 157.104 135.176 157.553 135.732C157.983 136.289 158.208 136.792 158.301 137.457C158.395 138.121 158.582 138.534 158.956 138.93C159.367 139.343 159.554 139.774 159.723 140.708C159.872 141.57 160.302 142.63 161.163 144.3C162.116 146.132 162.415 146.904 162.509 147.784C162.621 148.664 162.808 149.131 163.313 149.85C163.818 150.55 164.042 151.107 164.192 152.041C164.342 152.957 164.547 153.478 164.94 153.945C165.351 154.448 165.52 154.915 165.688 156.065C165.875 157.196 166.043 157.663 166.436 158.148C166.829 158.615 166.997 159.064 167.091 159.908C167.184 160.681 167.39 161.273 167.783 161.884C168.194 162.495 168.381 163.069 168.493 163.949C168.587 164.848 168.83 165.512 169.41 166.572C170.101 167.829 170.176 168.098 170.176 169.248C170.176 170.29 170.326 170.936 170.906 172.517C171.579 174.403 171.635 174.654 171.747 177.456C171.822 179.091 172.009 181.066 172.196 181.857C172.645 183.94 172.589 187.353 172.102 189.311C171.878 190.155 171.654 191.34 171.579 191.969C171.485 192.813 171.354 193.154 171.074 193.316C170.868 193.442 170.158 194.412 169.484 195.507C167.035 199.477 166.025 200.554 162.939 202.494C159.087 204.919 155.197 206.715 152.785 207.182C151.906 207.344 150.821 207.703 150.372 207.954C149.699 208.331 149.194 208.439 147.567 208.547C146.221 208.655 144.837 208.888 143.247 209.319C141.153 209.894 140.667 209.966 138.609 209.966C136.44 209.966 136.178 210.002 134.009 210.684L131.709 211.403H124.303C117.777 211.403 116.617 211.367 114.691 211.044C110.802 210.415 107.118 209.93 105.098 209.786C103.845 209.697 102.255 209.409 100.703 208.996C99.3754 208.637 97.8981 208.349 97.4493 208.349C95.9532 208.349 87.8932 205.907 81.9277 203.626C76.7102 201.65 72.7643 199.746 66.9297 196.405C58.8884 191.789 55.915 189.688 53.4278 186.886C52.7733 186.149 51.7635 185.18 51.1837 184.731C50.043 183.815 47.5745 180.384 45.0125 176.073C42.9554 172.661 42.6749 172.05 42.4692 170.811C42.3383 170.11 42.0578 169.374 41.7025 168.835C40.9357 167.685 40.7674 166.554 40.7674 162.495C40.7674 158.902 40.8422 158.453 41.7773 157.304C42.0204 156.981 42.3757 156.226 42.544 155.633C43.2359 153.334 46.5834 149.329 50.5853 146.042C53.1099 143.959 54.475 143.061 57.1306 141.731C58.3648 141.103 59.8047 140.295 60.3471 139.899C60.8894 139.522 61.4504 139.199 61.6 139.199C62.1984 139.199 63.7319 139.81 65.2654 140.654C66.1443 141.121 67.7525 141.857 68.8559 142.252C70.0527 142.683 71.1935 143.258 71.6423 143.617C72.6147 144.408 72.8391 144.515 73.7742 144.659C75.7938 144.982 75.9996 145.306 76.4858 148.97C76.6915 150.515 76.9346 152.113 77.0281 152.526C77.1216 152.957 77.2525 155.759 77.3273 158.777C77.4395 163.482 77.4956 164.434 77.8322 165.602C78.5615 168.206 78.4306 168.889 75.9809 174.924C75.3263 176.558 74.6531 178.444 74.5035 179.145C74.2978 180.097 74.1108 180.51 73.7555 180.779C73.4189 181.048 73.1383 181.587 72.8204 182.665C72.5586 183.491 72.2407 184.299 72.0911 184.461C71.7358 184.838 71.7358 186.096 72.0724 186.886C72.3155 187.443 72.4277 187.515 73.0074 187.515C74.0734 187.515 75.5881 187.155 76.4297 186.688C76.8598 186.455 77.7761 185.647 78.468 184.91C79.16 184.174 79.8332 183.563 79.9641 183.563C80.2633 183.563 80.3568 184.012 80.5999 186.437C80.843 189.023 81.1796 189.993 82.1521 191.035L82.9375 191.861L83.7229 191.592C84.1531 191.448 85.0507 190.963 85.7239 190.496L86.9582 189.652V188.682C86.9582 188.107 86.7712 187.209 86.4906 186.473C86.2101 185.718 86.0231 184.838 86.0231 184.264C86.0231 183.725 85.8922 182.647 85.7239 181.857C85.5556 181.066 85.406 179.468 85.406 178.265C85.3873 176.271 85.406 176.037 85.8735 175.121C86.154 174.582 86.4906 173.99 86.6215 173.828C86.7899 173.613 86.7899 173.379 86.659 173.02C86.5093 172.607 86.3036 172.481 85.5743 172.301C85.0694 172.176 84.6206 172.05 84.5832 171.996C84.3401 171.763 84.1905 169.122 84.3588 167.739C84.5645 165.907 84.9946 164.47 86.1166 161.956C86.5654 160.95 87.033 159.567 87.1452 158.902C87.2948 158.076 87.5379 157.501 87.9119 157.052C88.2298 156.657 88.4729 156.1 88.5477 155.58C88.8095 153.748 89.6698 151.951 90.2682 151.951C90.4365 151.951 91.2406 152.275 92.0822 152.652C92.905 153.047 94.3823 153.586 95.3548 153.837C97.5802 154.448 98.2908 154.753 99.1136 155.364C99.4689 155.633 101.414 156.585 103.433 157.465C105.453 158.364 107.828 159.531 108.726 160.088C110.783 161.381 111.325 161.65 111.924 161.65C112.185 161.65 113.064 161.974 113.85 162.369C114.635 162.746 115.757 163.159 116.318 163.285C116.879 163.393 118.17 163.896 119.179 164.381C122.19 165.817 124.154 166.392 126.136 166.392C127.576 166.392 127.969 166.32 128.885 165.925C129.932 165.44 130.905 164.488 130.905 163.949C130.905 163.195 130.063 161.183 129.203 159.926C128.081 158.256 127.296 157.358 124.266 154.197C120.302 150.048 112.765 141.606 109.68 137.852C108.969 136.972 107.379 135.427 106.182 134.403C104.705 133.146 103.602 132.015 102.742 130.883C102.05 129.985 101.283 129.015 101.021 128.746C100.628 128.332 100.591 128.171 100.703 127.578C100.965 126.177 101.189 126.105 105.285 125.71C112.26 125.064 122.676 126.644 127.539 129.069C129.371 129.985 132.588 132.338 132.588 132.751C132.588 133.433 131.933 133.811 130.718 133.811C129.278 133.811 128.567 134.098 127.67 135.068C127.015 135.75 126.959 135.894 127.071 136.487C127.221 137.259 128.1 138.876 128.829 139.72C129.334 140.313 129.39 140.331 130.643 140.313C133.691 140.259 137.936 138.534 139.077 136.882C140.367 135.05 138.815 130.865 136.104 128.764C134.682 127.686 131.298 125.854 128.96 124.902C127.37 124.255 126.697 124.094 124.64 123.842C122.751 123.627 121.947 123.447 121.012 123.034C120.077 122.603 119.572 122.495 118.581 122.495C117.908 122.495 116.43 122.369 115.29 122.226C112.017 121.813 109.867 121.866 106.762 122.495C105.285 122.782 103.864 123.034 103.62 123.034C103.209 123.034 103.19 122.98 103.303 122.315C103.546 120.843 104.63 118.454 106.369 115.544C107.361 113.874 108.52 111.7 108.969 110.695C109.399 109.671 110.054 108.467 110.428 108C110.783 107.551 111.138 106.959 111.194 106.707C111.363 105.899 111.998 104.911 115.196 100.493C116.917 98.1218 118.637 95.5893 119.03 94.8708C119.797 93.4339 119.815 92.8951 119.105 91.9431C118.787 91.4941 118.6 91.4223 117.852 91.4223C117.365 91.4223 116.543 91.5839 116.019 91.7635C115.495 91.9611 114.542 92.1766 113.906 92.2485C112.915 92.3562 112.672 92.4461 112.354 92.8771C112.054 93.2543 111.699 93.4339 110.97 93.5776C110.241 93.7213 109.848 93.9189 109.549 94.2961C109.305 94.5655 108.483 95.1582 107.716 95.6072C106.949 96.0562 105.977 96.7567 105.565 97.1519C105.042 97.6907 104.686 97.8883 104.275 97.8883C103.882 97.8883 103.546 98.0859 103.041 98.6067C102.536 99.1276 102.162 99.3431 101.563 99.4329C101.002 99.5228 100.666 99.7024 100.385 100.062C100.086 100.439 99.7307 100.618 98.9453 100.78C98.1412 100.924 97.7485 101.139 97.2248 101.642C96.776 102.091 96.0093 102.522 94.9808 102.935C93.84 103.366 93.1294 103.798 92.3814 104.462C91.8203 104.983 90.4739 105.863 89.3893 106.42C88.3046 106.995 87.2013 107.605 86.9208 107.785C86.5841 108.018 86.1166 108.126 85.406 108.126H84.3775L83.3115 106.097C82.7131 105.001 81.6659 103.313 80.9552 102.361C78.973 99.7024 78.4119 98.7145 78.1688 97.4572C78.0005 96.5951 77.8135 96.182 77.4021 95.8048C77.0655 95.4995 76.7102 94.8708 76.4858 94.1703C76.0183 92.6975 75.6442 92.015 75.1393 91.7635C74.5596 91.4582 72.9887 91.6737 71.5114 92.2664C70.3706 92.7155 70.221 92.8412 70.1088 93.38C70.034 93.7033 70.0527 94.5116 70.1462 95.1582C70.221 95.8228 70.2958 97.547 70.3145 99.0198C70.3145 101.157 70.4267 102.235 70.8756 104.66C71.1935 106.294 71.4366 108.27 71.4366 109.042C71.4366 109.814 71.6049 111.108 71.8106 111.934C72.0163 112.76 72.2407 113.91 72.2968 114.52L72.409 115.598L71.5114 116.37C69.5665 118.023 66.4996 119.711 62.1984 121.507C60.852 122.064 59.3559 122.836 58.851 123.231C58.3461 123.609 57.729 123.932 57.5046 123.932C56.7939 123.932 55.9524 124.291 55.6532 124.74C55.4101 125.081 55.1483 125.171 53.914 125.279C52.8481 125.369 52.1562 125.548 51.3333 125.962C50.3796 126.429 49.9308 126.536 48.3225 126.626C46.6021 126.716 46.3589 126.77 45.7231 127.255C45.3304 127.524 44.5637 127.865 44.0027 127.991C43.4416 128.117 42.7871 128.35 42.5253 128.494C41.5155 129.141 42.2822 130.775 43.8531 131.368C44.3767 131.548 45.8353 132.176 47.1257 132.751C48.416 133.308 50.791 134.314 52.3993 134.978C56.5882 136.684 58.0469 137.439 58.1217 137.888C58.1591 138.085 57.9534 138.498 57.6916 138.804C57.1867 139.379 56.6256 139.72 50.9032 143.007C45.1247 146.33 42.1326 148.79 39.7763 152.185C37.1021 156.065 35.3442 160.95 35.3442 164.542C35.3442 170.433 39.6828 180.115 45.106 186.347C46.8826 188.413 49.9682 191.25 51.8944 192.615C52.7172 193.19 53.9327 194.178 54.606 194.807C55.3914 195.525 56.1207 196.046 56.663 196.226C57.1306 196.387 57.7477 196.747 58.0656 197.016C58.3648 197.303 58.9258 197.627 59.2998 197.734C59.6738 197.842 60.2162 198.183 60.4967 198.471C60.8333 198.794 61.226 199.01 61.5252 199.01C61.8431 199.01 62.2358 199.243 62.6473 199.638C63.04 200.033 63.6384 200.375 64.2181 200.536C64.7417 200.698 65.415 201.039 65.7329 201.327C66.0321 201.614 66.5931 201.883 66.9484 201.955C67.3037 202.027 67.9021 202.297 68.2575 202.566C69.1738 203.284 69.1551 203.266 71.661 204.147C72.9139 204.578 74.1482 205.134 74.41 205.368C74.6905 205.601 75.532 205.979 76.2988 206.194C77.0655 206.41 78.0379 206.823 78.4306 207.11C78.9917 207.505 79.3844 207.631 80.0202 207.631C80.5999 207.631 81.1422 207.793 81.8342 208.17C82.4887 208.511 83.3863 208.781 84.5458 208.978C85.5182 209.14 86.5093 209.409 86.7338 209.571C87.8558 210.343 88.3794 210.505 89.6885 210.505C90.8666 210.505 91.1845 210.595 92.4936 211.223C93.8587 211.888 94.0831 211.942 95.5231 211.942C96.8134 211.942 97.4493 212.049 99.3754 212.66C101.582 213.343 101.769 213.379 104.125 213.379C106.257 213.379 106.931 213.45 109.399 214.007C112.129 214.618 112.354 214.636 116.187 214.654C118.375 214.654 121.199 214.726 122.489 214.798C126.304 215.013 128.623 214.78 130.68 214.025C132.401 213.379 132.476 213.379 135.206 213.379C137.936 213.379 137.992 213.379 139.451 212.768C140.835 212.193 141.097 212.157 143.827 212.031C146.669 211.906 146.726 211.906 147.922 211.259C148.932 210.72 149.381 210.595 150.671 210.505C152.037 210.397 152.317 210.307 152.953 209.822C153.495 209.409 154 209.212 154.935 209.068C155.945 208.906 156.356 208.745 156.955 208.26C157.609 207.721 157.853 207.631 158.694 207.631C159.554 207.631 159.723 207.559 160.115 207.11C160.433 206.715 160.863 206.499 161.742 206.284C163.612 205.817 168.905 202.315 170.588 200.429C172.907 197.806 176.273 191.915 177.582 188.143C178.255 186.257 178.274 186.06 178.255 183.832C178.236 180.725 177.862 178.785 175.693 170.541C172.439 158.22 171.972 156.801 167.932 146.383C161.106 128.853 155.889 116.586 150.952 106.51C150.447 105.468 149.942 104.193 149.811 103.69C149.68 103.187 149.381 102.594 149.138 102.379C148.857 102.109 148.614 101.606 148.483 100.96C148.353 100.385 148.053 99.6844 147.754 99.3252C147.474 98.9839 147.174 98.3732 147.1 97.9781C147.025 97.5829 146.651 96.7927 146.295 96.2179C145.94 95.6431 145.267 94.0805 144.818 92.7334C144.238 90.9912 143.472 89.3208 142.219 87.0397C140.236 83.3577 138.834 80.0708 136.908 74.6465C135.393 70.3897 133.916 63.9417 133.523 59.9902C133.392 58.7509 133.224 57.0625 133.149 56.2184C132.7 51.8538 133.037 47.4533 134.103 43.3941C134.533 41.7955 134.944 39.8378 135.019 39.0295C135.131 37.7543 135.262 37.3232 136.104 35.7067C136.646 34.6829 137.936 32.7072 138.983 31.2883C140.049 29.8873 141.171 28.3606 141.471 27.8936C141.938 27.1752 142.144 27.0135 142.836 26.8878C143.359 26.798 143.733 26.6004 143.92 26.2951C144.089 26.0616 144.538 25.7742 144.912 25.6664C145.286 25.5587 146.333 24.8941 147.231 24.1756C148.558 23.098 149.063 22.8106 150.054 22.5591C150.915 22.3257 151.345 22.1101 151.625 21.7329C151.962 21.3019 152.186 21.2121 153.29 21.1043C154.337 20.9965 154.692 20.8708 155.309 20.3858C155.945 19.8829 156.263 19.7752 157.46 19.6674C158.414 19.5776 159.33 19.3441 160.321 18.931C161.724 18.3383 161.854 18.3203 164.192 18.3203C165.52 18.3203 167.465 18.2305 168.493 18.1227C171.354 17.8174 178.012 18.464 181.023 19.3441C183.828 20.1523 187.437 21.5354 189.438 22.5771C191.42 23.6189 196.095 26.6363 197.517 27.7858C199.125 29.115 199.424 29.546 199.555 30.8752C199.63 31.5397 199.779 32.7072 199.892 33.4975C200.284 36.1917 199.63 39.8737 198.265 42.4781C197.33 44.2922 194.394 48.2436 193.01 49.5727C191.383 51.1354 186.352 54.4761 184.987 54.9072C184.501 55.0689 183.36 55.7155 182.463 56.3621C181.266 57.2062 180.536 57.5834 179.807 57.7451C179.265 57.8708 178.479 58.2121 178.087 58.5174C177.526 58.9485 177.058 59.1101 175.899 59.2718C175.02 59.3975 173.991 59.6849 173.374 59.9902C172.439 60.4572 172.028 60.5291 169.335 60.6907C167.689 60.7985 165.501 60.9781 164.473 61.0679C163.182 61.1936 161.967 61.1936 160.527 61.0679C158.077 60.8524 156.992 60.565 156.095 59.9184C154.767 58.9485 153.72 58.9664 151.924 60.0082C150.765 60.6907 150.279 61.2834 150.447 61.8043C150.597 62.2354 151.27 62.864 151.606 62.864C151.737 62.864 152.635 63.1873 153.607 63.5824L155.347 64.3009H161.406L167.465 64.2829L168.774 63.7441C169.727 63.331 170.625 63.1334 172.14 62.9718C173.991 62.7562 174.309 62.6844 175.225 62.0917C176.048 61.5888 176.516 61.4271 177.507 61.3373C178.535 61.2295 178.835 61.1218 179.265 60.6907C179.639 60.3135 180.088 60.1159 180.892 59.9723C181.64 59.8286 182.22 59.5771 182.612 59.2538C182.93 58.9664 183.585 58.6611 184.033 58.5713C184.557 58.4635 185.025 58.2121 185.324 57.8708C185.586 57.5834 186.128 57.2422 186.539 57.1164C186.951 56.9907 187.549 56.6674 187.848 56.38C188.166 56.1106 188.765 55.7514 189.214 55.6077C190.99 54.997 196.189 51.2431 198.078 49.1776C198.732 48.4771 200.079 47.0582 201.089 45.9985C203.258 43.7533 203.632 43.1786 204.38 41.0412C205.82 36.8922 206.231 32.2761 205.39 29.7077C203.856 25.0378 197.704 20.8708 187.493 17.5659L184.108 16.4703L179.34 16.2368C175.843 16.0752 173.935 15.8956 172.14 15.5723C169.653 15.1232 167.016 14.8718 166.343 15.0334ZM113.008 95.8407C113.195 96.0383 112.784 96.613 111.624 97.8164C110.914 98.5528 110.222 99.5407 109.623 100.708C109.1 101.678 108.109 103.241 107.379 104.175C106.613 105.163 105.958 106.204 105.827 106.671C105.696 107.138 105.341 107.695 105.042 107.965C104.668 108.288 104.443 108.719 104.331 109.276C104.238 109.743 103.695 110.874 103.116 111.844C102.536 112.796 100.797 116.029 99.2819 119.029C96.9443 123.609 96.4207 124.507 96.0093 124.668C95.4296 124.866 92.5871 125.387 89.1087 125.908C86.2849 126.321 79.5527 128.422 73.8116 130.631C71.9415 131.368 69.4356 132.266 68.2575 132.661C66.8923 133.092 65.6581 133.649 64.8913 134.134L63.6758 134.924L62.7408 134.457C62.2358 134.206 61.3943 133.9 60.8894 133.811C60.3471 133.703 59.7112 133.398 59.3559 133.11C58.9819 132.787 58.3648 132.517 57.7477 132.392C57.2054 132.266 55.7467 131.709 54.5125 131.134C53.2782 130.542 51.8196 129.931 51.2772 129.769C50.1552 129.41 49.9308 128.871 50.8284 128.674C55.6906 127.632 59.3559 126.285 63.1335 124.094C63.975 123.609 64.8352 123.214 65.0409 123.214C65.6581 123.214 66.2939 122.926 66.9858 122.333C67.3598 122.01 68.0144 121.705 68.5567 121.597C69.099 121.471 69.6974 121.184 70.034 120.879C70.3893 120.555 70.9504 120.304 71.5862 120.178C72.3716 120.016 73.1196 119.621 75.1019 118.274C76.4858 117.322 77.6078 116.532 77.6078 116.514C77.6078 116.496 77.4395 114.538 77.2338 112.185C77.0281 109.814 76.8972 107.839 76.9533 107.803C77.1964 107.569 77.7013 108.18 79.4592 110.892C80.5438 112.545 81.535 113.981 81.6659 114.089C82.283 114.574 84.5084 113.497 88.529 110.748C89.8755 109.832 92.9611 107.947 95.3735 106.546C97.7859 105.163 100.367 103.546 101.077 102.953C101.937 102.253 102.742 101.786 103.415 101.57C105.154 101.014 110.428 97.7626 111.849 96.3436C112.447 95.7509 112.765 95.6072 113.008 95.8407ZM96.5516 128.225C97.0191 128.71 98.6461 130.703 100.161 132.661C103.284 136.702 104.406 138.067 109.698 144.192C111.774 146.581 114.299 149.563 115.308 150.82C116.337 152.077 117.665 153.64 118.301 154.286C120.264 156.316 121.536 157.843 122.022 158.795C122.302 159.298 122.471 159.747 122.433 159.8C122.172 160.052 119.591 159.118 116.823 157.771C112.896 155.867 99.9551 150.443 96.215 149.131C94.6815 148.593 92.9237 147.892 92.344 147.605L91.278 147.066L90.6609 147.407C90.3243 147.587 89.8007 148.162 89.4828 148.682C88.2298 150.802 84.8824 155.921 84.0596 156.998C83.5733 157.627 83.1058 158.328 83.0123 158.543C82.8066 159.1 82.283 159.082 82.283 158.525C82.283 156.352 81.4228 149.437 80.7869 146.437C80.5812 145.485 80.4129 144.12 80.4129 143.384C80.4129 141.678 80.1137 141.121 79.0665 140.762C78.6176 140.618 76.1118 139.792 73.4937 138.93C70.8756 138.067 68.3697 137.241 67.9396 137.098C67.2476 136.864 67.1541 136.792 67.3224 136.505C67.5842 136.056 68.8559 135.337 70.5389 134.709C71.287 134.439 73.0448 133.667 74.4287 133.038C79.5901 130.649 85.6678 128.548 88.5664 128.153C89.6137 128.009 90.7544 127.776 91.1097 127.632C91.5024 127.47 92.4188 127.363 93.7091 127.363L95.6914 127.345L96.5516 128.225Z" fill="black"/>
<path d="M278.752 119.675C278.191 120.124 278.154 120.268 278.285 122.854C278.322 123.878 278.266 124.148 277.743 125.028C277.182 125.962 277.144 126.141 277.144 127.776C277.144 128.871 276.938 130.721 276.583 132.769C276.247 134.673 276.022 136.667 276.022 137.618C276.022 138.552 275.798 140.546 275.461 142.468C275.031 144.929 274.9 146.294 274.9 148.162C274.9 149.509 274.807 150.928 274.676 151.323C274.563 151.718 274.451 153.568 274.395 155.454C274.302 160.411 274.059 164.345 273.815 165.045C273.685 165.422 273.647 166.159 273.722 166.949C273.815 168.045 273.759 168.422 273.329 169.589C272.918 170.739 272.843 171.278 272.843 172.912C272.843 176.415 273.292 178.732 274.189 179.845C274.582 180.348 276.172 180.294 277.144 179.773C278.584 178.983 279.669 176.792 279.482 175.067C279.313 173.649 279.893 172.517 281.52 171.134C282.53 170.254 282.792 169.913 283.222 168.835C283.615 167.829 283.914 167.416 284.624 166.841C285.242 166.338 285.653 165.817 285.934 165.171C286.214 164.488 286.495 164.147 286.962 163.914C287.579 163.59 287.617 163.59 288.215 163.932C288.795 164.255 288.832 164.345 288.795 165.189C288.776 165.674 288.496 166.751 288.178 167.578C287.747 168.763 287.617 169.374 287.617 170.433C287.617 171.799 287.336 173.002 286.794 174.008C286.569 174.421 286.495 175.121 286.495 176.792V179.019L287.243 179.504C288.458 180.276 290.384 180.025 291.357 178.965C292.142 178.103 292.329 177.259 292.142 175.283C291.974 173.505 291.974 173.415 292.928 169.464C293.582 166.733 293.732 164.327 293.339 162.225C293.171 161.327 293.04 160.16 293.04 159.639C293.04 158.471 292.479 157.322 291.6 156.675L290.964 156.208L289.244 156.496C286.887 156.891 285.279 157.681 284.624 158.777C284.363 159.226 283.858 159.747 283.502 159.944C282.642 160.429 281.932 161.183 281.202 162.369C280.548 163.411 280.099 163.626 279.37 163.267C278.977 163.051 278.977 162.998 279.108 160.86C279.183 159.675 279.295 157.394 279.37 155.813C279.482 153.658 279.594 152.724 279.874 152.095C280.174 151.359 280.192 151.143 279.987 150.425C279.669 149.275 279.687 148.916 280.323 145.27C280.679 143.276 280.884 141.372 280.884 140.295C280.884 138.876 280.997 138.265 281.464 136.864C281.95 135.355 282.006 134.996 281.913 133.811C281.801 132.607 281.838 132.356 282.268 131.476C282.68 130.632 282.754 130.236 282.754 128.817C282.754 127.883 282.867 126.716 283.016 126.213C283.166 125.692 283.334 124.219 283.39 122.908L283.502 120.537L282.923 119.891C282.343 119.262 282.324 119.262 280.81 119.262C279.519 119.262 279.22 119.316 278.752 119.675Z" fill="black"/>
<path d="M307.626 125.315C306.168 125.764 305.869 125.908 305.195 126.447L304.541 126.949L304.485 128.979C304.335 132.859 305.046 138.786 305.831 140.295C306 140.618 306.13 141.175 306.13 141.534C306.13 142.181 305.981 142.342 303.587 144.426C301.063 146.599 301.044 146.635 301.137 147.281C301.474 149.724 303.307 150.676 307.234 150.461C310.132 150.299 310.768 150.676 311.572 152.993C311.797 153.658 312.433 155.005 312.975 155.993C314.695 159.118 315.312 160.914 317.183 168.368C318.379 173.217 318.473 173.702 318.473 175.606C318.473 177.366 318.529 177.78 318.959 178.803C319.221 179.45 319.52 180.025 319.632 180.079C319.969 180.276 321.689 180.168 322.606 179.881C323.111 179.719 324.27 179.109 325.186 178.534L326.832 177.492L326.982 176.468C327.15 175.085 327.711 173.487 328.553 171.978C329.712 169.913 330.236 169.194 330.61 169.194C331.189 169.194 331.863 169.841 332.106 170.667C332.405 171.673 333.003 172.643 334.612 174.834C336.482 177.348 336.949 177.636 341.269 179.001C344.242 179.935 345.084 180.366 348.263 182.593C349.591 183.527 350.862 184.317 351.068 184.371C351.293 184.425 352.022 184.533 352.695 184.641C353.518 184.748 354.584 185.126 356.005 185.79C358.511 186.958 360.232 187.353 362.981 187.389C364.757 187.425 365.019 187.371 365.786 186.976C366.945 186.365 367.469 185.305 367.581 183.437C367.656 182.162 367.637 182 367.226 181.533C366.758 180.995 365.823 180.707 364.57 180.689C363.916 180.689 363.691 180.797 362.981 181.515L362.139 182.342L361.073 182.216C358.53 181.964 355.706 180.833 352.433 178.803C350.526 177.636 350.451 177.402 351.667 176.271C352.246 175.732 352.845 174.852 353.555 173.469L354.603 171.439L354.509 167.578C354.36 162.028 353.929 160.501 351.91 158.489C350.619 157.196 350.507 157.16 348.3 157.609C345.084 158.274 342.559 160.106 341.176 162.8C340.484 164.165 340.446 164.327 340.427 165.943C340.427 167.398 340.334 167.847 339.904 168.889C339.605 169.553 339.305 170.146 339.212 170.2C339.118 170.254 338.744 170.2 338.37 170.092C337.454 169.805 336.743 168.781 336.052 166.787C335.64 165.584 335.303 164.973 334.873 164.56C334.144 163.878 331.863 163.087 330.628 163.087C328.702 163.087 326.365 164.812 324.906 167.326C324.158 168.601 323.84 168.727 323.036 168.063C322.606 167.703 322.494 167.398 322.288 166.069C322.138 165.009 321.839 164.057 321.409 163.177C320.941 162.243 320.717 161.507 320.623 160.555C320.511 159.441 320.306 158.813 319.314 156.801C318.66 155.472 318.005 153.963 317.837 153.46C317.669 152.957 317.239 152.077 316.883 151.502C316.135 150.335 316.023 149.311 316.565 148.862C316.734 148.718 317.856 148.144 319.053 147.587C322.157 146.15 323.167 144.875 323.129 142.45C323.129 141.139 322.662 140.079 321.577 138.894C320.549 137.78 320.549 137.762 321.596 135.607C322.531 133.685 322.961 132.428 322.961 131.601C322.961 130.721 322.269 129.5 321.446 128.943C320.923 128.602 320.792 128.584 319.875 128.746C318.716 128.979 317.295 129.626 316.453 130.308C315.911 130.739 315.799 130.757 315.238 130.596C314.508 130.362 313.629 129.518 312.451 127.883C311.385 126.429 310.544 125.638 309.646 125.297C308.842 124.974 308.749 124.974 307.626 125.315ZM312.395 134.565C313.031 135.858 313.012 136.666 312.339 137.277C311.834 137.744 311.31 137.87 310.731 137.654C310.562 137.6 310.394 137.223 310.338 136.72C310.263 136.253 310.132 135.607 310.02 135.301C309.684 134.242 310.17 133.667 311.423 133.649C311.872 133.631 312.002 133.757 312.395 134.565ZM348.6 164.147C349.011 164.47 349.049 164.65 349.105 166.32C349.198 168.458 348.824 169.841 347.665 171.745C346.599 173.505 345.963 173.325 345.589 171.134C345.121 168.53 345.72 166.033 347.16 164.381C347.758 163.716 348.001 163.68 348.6 164.147Z" fill="black"/>
<path d="M264.241 153.819C263.885 153.945 263.063 154.304 262.427 154.628C260.8 155.418 260.052 155.382 258.799 154.466C257.864 153.801 257.714 153.748 256.574 153.748C255.47 153.748 255.283 153.801 254.834 154.232C253.993 155.095 253.768 155.885 253.75 158.094C253.75 159.208 253.675 160.519 253.581 161.022C253.488 161.507 253.282 164.129 253.114 166.823C252.964 169.517 252.759 172.068 252.646 172.481C252.553 172.894 252.459 173.846 252.459 174.6C252.459 175.337 252.328 176.774 252.179 177.78C252.029 178.767 251.767 182.198 251.618 185.395C251.468 188.592 251.244 191.682 251.132 192.274C251.019 192.867 250.814 194.807 250.683 196.585C250.384 200.141 250.14 203.123 249.823 206.553C249.71 207.793 249.542 209.768 249.467 210.954C249.374 212.139 249.168 213.989 249 215.085C248.757 216.522 248.663 218.39 248.626 222C248.588 225.089 248.495 227.316 248.345 227.963C248.139 228.825 248.158 229.256 248.439 230.747C249.037 234.052 249.037 234.088 248.27 235.273C247.672 236.225 247.597 236.459 247.597 237.59V238.848L248.701 239.764C249.598 240.518 249.935 240.68 250.496 240.68C251.506 240.68 252.216 240.195 252.74 239.153C253.45 237.734 253.619 235.884 253.488 231.25C253.432 228.969 253.376 226.221 253.394 225.143C253.394 224.012 253.282 222.431 253.095 221.407C252.815 219.934 252.815 219.521 253.002 218.713C253.17 218.048 253.207 217.007 253.133 215.175C253.058 213.738 253.002 212.103 253.002 211.529C253.002 210.972 253.002 210.092 253.002 209.607C253.002 203.356 253.133 201.111 253.787 196.333C253.955 195.148 253.955 194.609 253.75 193.837C253.525 192.939 253.563 192.651 254.03 190.316C254.311 188.933 254.778 186.724 255.077 185.431C255.545 183.419 255.601 182.934 255.451 182.108C255.021 179.863 255.021 179.198 255.433 178.175C255.863 177.115 255.919 176.253 255.657 175.373C255.47 174.708 255.751 173.972 256.424 173.361L256.891 172.948L258.444 173.343C259.94 173.702 260.052 173.702 261.23 173.433C264.521 172.661 268.187 170.344 269.907 167.955C271.758 165.35 272.058 160.07 270.524 156.873C269.29 154.34 266.56 153.011 264.241 153.819ZM265.325 160.214C266.148 160.95 266.092 162.243 265.176 163.985C264.446 165.368 263.736 166.033 261.623 167.272C260.071 168.206 259.827 168.296 259.379 168.116C258.743 167.865 258.444 167.362 258.313 166.338C258.219 165.512 258.257 165.44 259.341 164.039C260.276 162.854 260.781 162.423 262.221 161.525C263.175 160.932 264.072 160.321 264.222 160.16C264.559 159.765 264.839 159.782 265.325 160.214Z" fill="black"/>
<path d="M238.004 157.088C237.929 157.16 237.256 157.214 236.508 157.196C234.862 157.142 234.226 157.34 232.001 158.579C229.345 160.034 228.597 160.663 228.13 161.812C227.849 162.441 227.382 163.087 226.783 163.626C225.923 164.398 225.867 164.506 225.717 165.656C225.568 166.877 225.493 167.039 224.034 168.961C223.305 169.931 222.912 171.439 222.912 173.325C222.931 175.66 223.735 176.935 225.811 177.851C227.12 178.426 229.57 178.426 231.402 177.851C234.039 177.007 236.321 175.66 237.891 174.008C238.752 173.11 238.752 173.11 239.425 173.307C239.874 173.451 240.322 173.81 240.771 174.403C241.856 175.822 242.249 176.019 244.1 176.019C245.521 176.019 245.764 175.965 246.232 175.588L246.755 175.157L246.12 173.648C245.783 172.84 245.11 171.457 244.661 170.595C243.969 169.302 243.838 168.925 243.95 168.44C244.212 167.272 244.829 166.033 245.746 164.83C246.251 164.165 246.662 163.482 246.662 163.303C246.662 162.764 245.783 161.165 245.072 160.411C244.175 159.459 241.931 158.022 240.584 157.537C239.369 157.088 238.209 156.891 238.004 157.088ZM238.359 163.015C239.07 163.554 239.182 163.752 239.182 164.327C239.182 165.063 238.565 165.817 237.274 166.644C236.882 166.895 236.096 167.757 235.498 168.601C234.525 170.002 234.263 170.236 232.468 171.367C230.448 172.643 230.187 172.732 229.383 172.427C228.728 172.194 228.765 171.942 229.644 170.703C230.074 170.074 230.467 169.266 230.598 168.691C230.748 167.973 231.047 167.434 231.87 166.446C233.908 163.985 234.563 163.357 235.516 162.89C236.844 162.207 237.386 162.243 238.359 163.015Z" fill="black"/>
<path d="M202.715 158.759C202.36 158.956 201.874 159.423 201.65 159.8C200.677 161.453 200.359 164.919 200.976 167.129C201.257 168.134 201.257 168.386 201.032 169.302L200.771 170.326L201.481 171.619C202.173 172.84 202.192 172.948 202.08 174.08C201.949 175.139 202.005 175.409 202.51 176.648C202.809 177.402 203.538 178.785 204.118 179.737C204.978 181.12 205.315 181.498 205.876 181.713C206.923 182.144 208.176 182.216 208.849 181.875C209.579 181.515 209.897 180.923 210.158 179.468C210.271 178.839 210.794 177.384 211.299 176.235C211.823 175.067 212.346 173.613 212.496 172.966C212.814 171.511 212.795 171.529 215.301 167.883C216.816 165.656 217.47 164.848 217.826 164.758C218.069 164.704 219.06 164.794 219.995 164.955C222.65 165.404 223.436 165.081 224.034 163.339C224.502 161.902 224.39 161.417 223.249 160.501C222.295 159.711 220.78 159.315 218.779 159.315C216.161 159.315 215.638 159.549 213.468 161.686C211.43 163.698 210.944 164.452 209.336 168.027L208.363 170.182L207.671 170.164C207.297 170.146 206.904 170.056 206.792 169.948C206.512 169.679 206.231 166.284 206.362 164.919C206.456 164.093 206.605 163.662 206.961 163.267C207.559 162.566 207.746 161.794 207.578 160.609C207.428 159.513 206.904 158.866 205.913 158.597C204.866 158.328 203.445 158.399 202.715 158.759Z" fill="black"/>
<path d="M185.698 159.782C185.23 160.124 184.426 160.716 183.884 161.112C183.342 161.507 182.668 162.153 182.388 162.566C181.864 163.321 181.864 163.375 181.733 167.021C181.602 171.331 181.303 174.672 180.91 176.54C180.536 178.3 180.723 178.767 182.051 179.324C182.668 179.594 183.267 180.043 183.734 180.581C184.127 181.048 184.838 181.623 185.324 181.857C185.96 182.162 186.278 182.467 186.521 182.988C186.801 183.563 187.119 183.832 188.372 184.497C189.214 184.946 190.541 185.593 191.308 185.916C192.636 186.491 192.823 186.527 194.768 186.509C197.087 186.491 198.676 186.078 200.602 184.964C201.93 184.21 202.341 183.581 202.341 182.342C202.341 181.426 202.304 181.372 201.294 180.456C199.836 179.163 199.293 178.911 197.853 178.893C196.675 178.893 196.638 178.911 195.759 179.737L194.88 180.563L193.87 180.348C192.673 180.097 189.999 178.642 189.999 178.247C189.999 177.744 190.373 177.277 191.084 176.935C191.963 176.504 192.86 175.588 194.207 173.774C195.89 171.529 196.245 170.667 196.114 169.104C196.058 168.386 195.759 167.075 195.422 166.141C194.001 162.01 192.206 160.124 189.045 159.405C187.25 159.01 186.67 159.064 185.698 159.782Z" fill="black"/>
<path d="M304.298 160.663C302.858 162.171 302.577 162.764 302.577 164.237C302.577 165.279 302.484 165.62 301.81 166.895C301.119 168.206 301.062 168.44 301.156 169.266C301.231 169.769 301.343 171.152 301.418 172.337C301.549 174.169 301.642 174.636 302.072 175.427C302.633 176.468 303.063 176.684 304.204 176.504C304.578 176.433 305.27 176.163 305.738 175.876L306.598 175.373L306.542 172.499C306.486 169.895 306.523 169.464 306.953 167.811C307.57 165.512 307.739 165.081 308.244 164.56C308.599 164.183 308.655 163.949 308.636 162.602C308.599 160.878 308.337 160.357 307.234 159.818C306.037 159.226 305.551 159.369 304.298 160.663Z" fill="black"/>
</svg>
