<svg width="118" height="114" viewBox="0 0 118 114" fill="none" xmlns="http://www.w3.org/2000/svg">
<path d="M92.8452 23.75V28.5H107.36V23.75H92.8452ZM54.1381 33.25V38H68.6532V33.25H54.1381ZM92.8452 33.25V38H107.36V33.25H92.8452ZM54.1381 42.75V47.5H68.6532V42.75H54.1381ZM92.8452 42.75V47.5H107.36V42.75H92.8452ZM15.4309 52.25V57H29.9461V52.25H15.4309ZM54.1381 52.25V57H68.6532V52.25H54.1381ZM73.4916 52.25V57H88.0068V52.25H73.4916ZM92.8452 52.25V57H107.36V52.25H92.8452ZM15.4309 61.75V66.5H29.9461V61.75H15.4309ZM54.1381 61.75V66.5H68.6532V61.75H54.1381ZM73.4916 61.75V66.5H88.0068V61.75H73.4916ZM92.8452 61.75V66.5H107.36V61.75H92.8452ZM15.4309 71.25V76H29.9461V71.25H15.4309ZM34.7845 71.25V76H49.2997V71.25H34.7845ZM54.1381 71.25V76H68.6532V71.25H54.1381ZM73.4916 71.25V76H88.0068V71.25H73.4916ZM92.8452 71.25V76H107.36V71.25H92.8452ZM15.4309 80.75V85.5H29.9461V80.75H15.4309ZM34.7845 80.75V85.5H49.2997V80.75H34.7845ZM54.1381 80.75V85.5H68.6532V80.75H54.1381ZM73.4916 80.75V85.5H88.0068V80.75H73.4916ZM92.8452 80.75V85.5H107.36V80.75H92.8452ZM15.4309 90.25V95H29.9461V90.25H15.4309ZM34.7845 90.25V95H49.2997V90.25H34.7845ZM54.1381 90.25V95H68.6532V90.25H54.1381ZM73.4916 90.25V95H88.0068V90.25H73.4916ZM92.8452 90.25V95H107.36V90.25H92.8452Z" fill="black"/>
</svg>
