<svg width="117" height="114" viewBox="0 0 117 114" fill="none" xmlns="http://www.w3.org/2000/svg">
<path d="M104.699 29.3835C103.586 25.2985 100.306 22.078 96.145 20.9855C88.5971 19 58.3378 19 58.3378 19C58.3378 19 28.0785 19 20.5306 20.9855C16.3696 22.078 13.0891 25.2985 11.9763 29.3835C9.95386 36.7935 9.95386 57 9.95386 57C9.95386 57 9.95386 77.2065 11.9763 84.6165C13.0891 88.7015 16.3696 91.922 20.5306 93.0145C28.0785 95 58.3378 95 58.3378 95C58.3378 95 88.5971 95 96.145 93.0145C100.311 91.922 103.586 88.7015 104.699 84.6165C106.722 77.2065 106.722 57 106.722 57C106.722 57 106.722 36.7935 104.699 29.3835ZM48.661 73.454V40.546L77.6914 57L48.661 73.454Z" fill="black"/>
</svg>
