<svg width="114" height="112" viewBox="0 0 114 112" fill="none" xmlns="http://www.w3.org/2000/svg">
<path d="M104.5 18.662C100.795 20.8227 93.3613 23.7673 88.9913 24.6167C88.863 24.6493 88.7585 24.6913 88.635 24.724C84.7732 20.9813 79.4818 18.662 73.625 18.662C61.8213 18.662 52.25 28.0653 52.25 39.662C52.25 40.2733 52.1978 41.398 52.25 41.9953C36.3232 41.9953 24.2013 33.8007 15.5088 23.3287C14.5635 25.662 14.1503 29.3487 14.1503 32.8113C14.1503 39.3493 19.3515 45.7707 27.4502 49.7513C25.9587 50.1293 24.3152 50.4 22.6052 50.4C19.8455 50.4 16.9243 49.686 14.25 47.5207C14.25 47.6 14.25 47.6747 14.25 47.7587C14.25 56.896 24.1205 63.1167 32.8985 64.848C31.1173 65.8793 27.5263 65.982 25.7735 65.982C24.5385 65.982 20.1685 65.4267 19 65.212C21.4415 72.702 30.248 76.9113 38.6413 77.0607C32.0768 82.1193 27.5215 83.9953 14.079 83.9953H9.5C17.993 89.3433 28.8088 93.3333 39.6483 93.3333C74.9408 93.3333 95 66.906 95 41.9953C95 41.594 94.9905 40.754 94.9763 39.9093C94.9763 39.8253 95 39.746 95 39.662C95 39.536 94.962 39.4147 94.962 39.2887C94.9478 38.654 94.9335 38.0613 94.9193 37.7533C98.6718 35.0933 101.925 31.7753 104.5 27.9953C101.056 29.498 97.3607 30.506 93.48 30.9633C97.4415 28.63 103.07 23.0673 104.5 18.662Z" fill="black"/>
</svg>
