<svg width="116" height="114" viewBox="0 0 116 114" fill="none" xmlns="http://www.w3.org/2000/svg">
<g filter="url(#filter0_d_528_808)">
<path d="M81.6971 14.25H33.6399C23.0673 14.25 14.417 22.8 14.417 33.25V80.75C14.417 91.2 23.0673 99.75 33.6399 99.75H81.6971C92.2696 99.75 100.92 91.2 100.92 80.75V33.25C100.92 22.8 92.2696 14.25 81.6971 14.25ZM81.6971 71.25H81.649C81.6971 71.44 81.6971 71.63 81.6971 71.82C81.6971 76.76 76.3147 80.75 69.6828 80.75C63.0509 80.75 57.6685 76.19 57.6685 71.25C57.6685 66.3575 62.4742 61.75 67.2799 61.75C68.0969 61.75 72.0856 61.75 72.0856 61.75V45.125L52.8627 49.875V76H52.8147C52.8627 76.19 52.8627 76.38 52.8627 76.57C52.8627 81.51 47.4803 85.5 40.8484 85.5C34.2166 85.5 28.8342 80.94 28.8342 76C28.8342 71.1075 33.6399 66.5 38.4456 66.5C39.2626 66.5 43.2513 66.5 43.2513 66.5C43.2513 61.75 43.2513 41.705 43.2513 41.705C43.2513 39.52 44.7411 37.62 46.9037 37.0975L75.738 29.9725C78.7656 29.2125 81.6971 31.4925 81.6971 34.58V71.25Z" fill="black"/>
</g>
<defs>
<filter id="filter0_d_528_808" x="10.417" y="14.25" width="94.5029" height="95.5" filterUnits="userSpaceOnUse" color-interpolation-filters="sRGB">
<feFlood flood-opacity="0" result="BackgroundImageFix"/>
<feColorMatrix in="SourceAlpha" type="matrix" values="0 0 0 0 0 0 0 0 0 0 0 0 0 0 0 0 0 0 127 0" result="hardAlpha"/>
<feOffset dy="6"/>
<feGaussianBlur stdDeviation="2"/>
<feComposite in2="hardAlpha" operator="out"/>
<feColorMatrix type="matrix" values="0 0 0 0 0 0 0 0 0 0 0 0 0 0 0 0 0 0 0.3 0"/>
<feBlend mode="normal" in2="BackgroundImageFix" result="effect1_dropShadow_528_808"/>
<feBlend mode="normal" in="SourceGraphic" in2="effect1_dropShadow_528_808" result="shape"/>
</filter>
</defs>
</svg>
