<svg width="141" height="70" viewBox="0 0 141 70" fill="none" xmlns="http://www.w3.org/2000/svg">
<g filter="url(#filter0_d_463_1006)">
<path d="M84.3542 0C73.8337 0 64.9583 4.93492 59.4167 13.1031V59.8997H117.604C128.125 59.8997 137 51.1785 137 40.8407C137 30.5029 128.125 21.7817 117.604 21.7817C116.5 21.7817 114.898 21.7392 113.794 22.2922C110.461 9.2317 98.2083 0 84.3542 0ZM48.3333 10.8908V59.8997H53.875V11.4014C52.2082 10.8483 50.0002 10.8908 48.3333 10.8908ZM42.7917 11.4014C40.5837 11.9544 38.9168 13.0605 37.25 13.6136V59.8997H42.7917V11.4014ZM31.7083 18.5485C28.9375 21.2712 27.249 24.4406 26.6862 28.2481H26.1667V59.8997H31.7083V18.5485ZM20.625 27.2271C18.417 27.2271 16.7502 27.6951 15.0833 28.2481V58.8786C16.7502 59.4317 18.417 59.8997 20.625 59.8997V27.2271ZM9.54167 31.6515C6.20801 34.3742 4 38.671 4 43.5634C4 48.4558 6.20801 52.7525 9.54167 55.4753V31.6515Z" fill="black"/>
</g>
<defs>
<filter id="filter0_d_463_1006" x="0" y="0" width="141" height="69.8997" filterUnits="userSpaceOnUse" color-interpolation-filters="sRGB">
<feFlood flood-opacity="0" result="BackgroundImageFix"/>
<feColorMatrix in="SourceAlpha" type="matrix" values="0 0 0 0 0 0 0 0 0 0 0 0 0 0 0 0 0 0 127 0" result="hardAlpha"/>
<feOffset dy="6"/>
<feGaussianBlur stdDeviation="2"/>
<feComposite in2="hardAlpha" operator="out"/>
<feColorMatrix type="matrix" values="0 0 0 0 0 0 0 0 0 0 0 0 0 0 0 0 0 0 0.3 0"/>
<feBlend mode="normal" in2="BackgroundImageFix" result="effect1_dropShadow_463_1006"/>
<feBlend mode="normal" in="SourceGraphic" in2="effect1_dropShadow_463_1006" result="shape"/>
</filter>
</defs>
</svg>
