<?xml version="1.0" standalone="no"?>
<!DOCTYPE svg PUBLIC "-//W3C//DTD SVG 20010904//EN"
 "http://www.w3.org/TR/2001/REC-SVG-20010904/DTD/svg10.dtd">
<svg version="1.0" xmlns="http://www.w3.org/2000/svg"
 width="64.000000pt" height="64.000000pt" viewBox="0 0 64.000000 64.000000"
 preserveAspectRatio="xMidYMid meet">

<g transform="translate(0.000000,64.000000) scale(0.100000,-0.100000)"
fill="#000000" stroke="none">
<path d="M207 486 c-51 -14 -71 -26 -43 -26 16 0 15 -3 -3 -26 -44 -56 -24
-103 61 -144 33 -16 66 -37 74 -47 12 -16 13 -16 14 -1 0 9 -12 26 -27 38 -16
12 -29 27 -29 33 -1 7 -2 16 -3 21 0 5 -7 3 -14 -3 -11 -8 -16 -5 -25 14 -15
33 5 85 49 126 36 33 26 36 -54 15z"/>
<path d="M372 471 c59 -51 79 -136 33 -136 -12 0 -20 -7 -20 -16 0 -9 -12 -27
-27 -40 -14 -13 -29 -35 -33 -49 -5 -24 -5 -23 10 3 10 18 37 38 70 52 93 41
118 93 74 149 -19 24 -19 26 -2 27 30 1 -36 26 -91 34 l-50 8 36 -32z"/>
<path d="M288 420 c-33 -45 -36 -70 -9 -63 15 4 21 -2 26 -26 8 -40 21 -40 29
0 5 25 10 30 26 26 11 -3 20 -1 20 4 0 17 -27 63 -46 81 -18 16 -20 14 -46
-22z m31 -27 c0 -21 -3 -32 -6 -25 -2 6 -11 12 -19 12 -18 0 -18 9 3 32 22 24
23 24 22 -19z"/>
<path d="M180 272 c0 -4 32 -39 70 -77 l70 -69 70 69 c39 38 70 73 70 77 0 19
-22 4 -79 -54 l-61 -63 -61 63 c-57 58 -79 73 -79 54z"/>
</g>
</svg>
