<svg width="116" height="114" viewBox="0 0 116 114" fill="none" xmlns="http://www.w3.org/2000/svg">
<g filter="url(#filter0_d_528_804)">
<path d="M103.826 29.3835C102.72 25.2985 99.4622 22.078 95.3293 20.9855C87.8324 19 57.7774 19 57.7774 19C57.7774 19 27.7224 19 20.2255 20.9855C16.0926 22.078 12.8343 25.2985 11.729 29.3835C9.72021 36.7935 9.72021 57 9.72021 57C9.72021 57 9.72021 77.2065 11.729 84.6165C12.8343 88.7015 16.0926 91.922 20.2255 93.0145C27.7224 95 57.7774 95 57.7774 95C57.7774 95 87.8324 95 95.3293 93.0145C99.467 91.922 102.72 88.7015 103.826 84.6165C105.835 77.2065 105.835 57 105.835 57C105.835 57 105.835 36.7935 103.826 29.3835ZM48.166 73.454V40.546L77.0003 57L48.166 73.454Z" fill="black"/>
</g>
<defs>
<filter id="filter0_d_528_804" x="5.72021" y="19" width="104.114" height="86" filterUnits="userSpaceOnUse" color-interpolation-filters="sRGB">
<feFlood flood-opacity="0" result="BackgroundImageFix"/>
<feColorMatrix in="SourceAlpha" type="matrix" values="0 0 0 0 0 0 0 0 0 0 0 0 0 0 0 0 0 0 127 0" result="hardAlpha"/>
<feOffset dy="6"/>
<feGaussianBlur stdDeviation="2"/>
<feComposite in2="hardAlpha" operator="out"/>
<feColorMatrix type="matrix" values="0 0 0 0 0 0 0 0 0 0 0 0 0 0 0 0 0 0 0.3 0"/>
<feBlend mode="normal" in2="BackgroundImageFix" result="effect1_dropShadow_528_804"/>
<feBlend mode="normal" in="SourceGraphic" in2="effect1_dropShadow_528_804" result="shape"/>
</filter>
</defs>
</svg>
