<svg width="114" height="112" viewBox="0 0 114 112" fill="none" xmlns="http://www.w3.org/2000/svg">
<path d="M28.5 14C20.6864 14 14.25 20.3235 14.25 28V84C14.25 91.6765 20.6864 98 28.5 98H85.5C93.3136 98 99.75 91.6765 99.75 84V28C99.75 20.3235 93.3136 14 85.5 14H28.5ZM57 32.6667H66.5C66.5 37.3567 73.4873 42 76 42V51.3333C73.1263 51.3333 69.673 50.0927 66.5 47.9974V65.3333C66.5 73.052 60.1065 79.3333 52.25 79.3333C44.3935 79.3333 38 73.052 38 65.3333C38 57.6147 44.3935 51.3333 52.25 51.3333V60.6667C49.628 60.6667 47.5 62.762 47.5 65.3333C47.5 67.9047 49.628 70 52.25 70C54.872 70 57 67.9047 57 65.3333V32.6667Z" fill="black"/>
</svg>
