<svg width="117" height="114" viewBox="0 0 117 114" fill="none" xmlns="http://www.w3.org/2000/svg">
<path d="M82.2527 14.25H33.8687C23.2242 14.25 14.5151 22.8 14.5151 33.25V80.75C14.5151 91.2 23.2242 99.75 33.8687 99.75H82.2527C92.8971 99.75 101.606 91.2 101.606 80.75V33.25C101.606 22.8 92.8971 14.25 82.2527 14.25ZM82.2527 71.25H82.2043C82.2527 71.44 82.2527 71.63 82.2527 71.82C82.2527 76.76 76.8337 80.75 70.1567 80.75C63.4797 80.75 58.0607 76.19 58.0607 71.25C58.0607 66.3575 62.8991 61.75 67.7375 61.75C68.56 61.75 72.5759 61.75 72.5759 61.75V45.125L53.2223 49.875V76H53.1739C53.2223 76.19 53.2223 76.38 53.2223 76.57C53.2223 81.51 47.8033 85.5 41.1263 85.5C34.4493 85.5 29.0303 80.94 29.0303 76C29.0303 71.1075 33.8687 66.5 38.7071 66.5C39.5296 66.5 43.5455 66.5 43.5455 66.5C43.5455 61.75 43.5455 41.705 43.5455 41.705C43.5455 39.52 45.0454 37.62 47.2227 37.0975L76.253 29.9725C79.3012 29.2125 82.2527 31.4925 82.2527 34.58V71.25Z" fill="black"/>
</svg>
