<svg width="133" height="60" viewBox="0 0 133 60" fill="none" xmlns="http://www.w3.org/2000/svg">
<path d="M80.3542 0C69.8337 0 60.9583 4.93492 55.4167 13.1031V59.8997H113.604C124.125 59.8997 133 51.1785 133 40.8407C133 30.5029 124.125 21.7817 113.604 21.7817C112.5 21.7817 110.898 21.7392 109.794 22.2922C106.461 9.2317 94.2083 0 80.3542 0ZM44.3333 10.8908V59.8997H49.875V11.4014C48.2082 10.8483 46.0002 10.8908 44.3333 10.8908ZM38.7917 11.4014C36.5837 11.9544 34.9168 13.0605 33.25 13.6136V59.8997H38.7917V11.4014ZM27.7083 18.5485C24.9375 21.2712 23.249 24.4406 22.6862 28.2481H22.1667V59.8997H27.7083V18.5485ZM16.625 27.2271C14.417 27.2271 12.7502 27.6951 11.0833 28.2481V58.8786C12.7502 59.4317 14.417 59.8997 16.625 59.8997V27.2271ZM5.54167 31.6515C2.20801 34.3742 0 38.671 0 43.5634C0 48.4558 2.20801 52.7525 5.54167 55.4753V31.6515Z" fill="black"/>
</svg>
