<svg width="117" height="114" viewBox="0 0 117 114" fill="none" xmlns="http://www.w3.org/2000/svg">
<path d="M58.6993 11.4C33.1526 11.4 12.2507 31.92 12.2507 57C12.2507 82.08 33.1526 102.6 58.6993 102.6C84.246 102.6 105.148 82.08 105.148 57C105.148 31.92 84.246 11.4 58.6993 11.4ZM77.0117 79.8C76.1601 79.8 75.7343 79.382 74.8828 78.964C68.4961 75.1982 60.4063 73.112 51.8907 73.112C47.2072 73.112 42.0978 73.948 37.84 74.784C36.9885 74.784 36.1369 75.202 35.7111 75.202C34.008 75.202 32.7307 73.948 32.7307 72.276C32.7307 70.604 33.5822 69.35 35.2854 69.35C40.8205 68.096 46.3595 67.26 52.3204 67.26C62.1133 67.26 71.0546 69.768 78.7187 73.948C79.5702 74.784 80.4218 75.202 80.4218 76.874C79.5625 78.964 78.2851 79.8 77.0117 79.8ZM81.6914 68.0998C80.8398 68.0998 79.9883 67.6818 79.1367 67.2638C71.8985 62.6658 61.6759 60.1578 50.6095 60.1578C45.0744 60.1578 39.9612 60.9938 36.133 61.8298C35.2815 62.2478 34.8557 62.2478 34.0042 62.2478C31.8753 62.2478 30.5941 60.5758 30.5941 58.9C30.5941 56.81 31.4456 55.974 33.5745 55.1342C38.6838 53.8802 43.7971 52.6262 51.0353 52.6262C62.9571 52.6262 74.0273 55.5522 83.3983 60.9862C84.6757 61.8222 85.5272 63.0762 85.5272 64.334C85.0976 66.424 83.8241 68.0998 81.6914 68.0998ZM87.2265 54.72C86.3749 54.72 85.9491 54.302 84.6718 53.884C76.1562 49.286 63.8087 46.36 51.8869 46.36C45.926 46.36 39.5393 47.196 34.0003 48.45C33.1487 48.45 32.7229 48.868 31.4456 48.868C28.8909 49.2898 27.1878 47.196 27.1878 44.6918C27.1878 42.1876 28.4652 40.926 30.1683 40.5118C36.9846 38.836 44.2228 38 51.8869 38C65.086 38 78.7109 40.926 89.3592 46.36C90.6366 47.196 91.9139 48.45 91.9139 50.54C91.4881 53.048 89.7812 54.72 87.2265 54.72Z" fill="black"/>
</svg>
