<?xml version="1.0" standalone="no"?>
<!DOCTYPE svg PUBLIC "-//W3C//DTD SVG 20010904//EN"
 "http://www.w3.org/TR/2001/REC-SVG-20010904/DTD/svg10.dtd">
<svg version="1.0" xmlns="http://www.w3.org/2000/svg"
 width="64.000000pt" height="64.000000pt" viewBox="0 0 64.000000 64.000000"
 preserveAspectRatio="xMidYMid meet">

<g transform="translate(0.000000,64.000000) scale(0.100000,-0.100000)"
fill="#000000" stroke="none">
<path d="M190 483 c0 -17 7 -36 15 -43 13 -10 15 -9 15 11 0 13 -7 33 -15 43
-14 19 -15 18 -15 -11z"/>
<path d="M432 488 c-8 -14 -12 -34 -10 -44 4 -17 5 -17 17 4 7 13 11 33 9 44
-3 20 -4 20 -16 -4z"/>
<path d="M280 465 c-31 -32 -33 -37 -23 -69 8 -24 7 -38 0 -45 -13 -13 -27
-14 -27 -2 0 5 -14 24 -32 42 -17 19 -39 47 -49 64 l-18 29 6 -39 c10 -72 43
-132 91 -172 32 -27 43 -32 37 -18 -12 30 -12 68 2 72 7 3 19 -19 29 -52 10
-30 21 -52 24 -48 4 5 15 29 24 56 10 26 22 47 27 47 19 0 22 -34 6 -62 -21
-36 -15 -35 35 5 43 35 71 81 83 137 3 19 9 44 12 55 3 16 1 15 -14 -6 -10
-14 -36 -47 -59 -72 -47 -53 -69 -49 -51 9 10 32 8 37 -23 69 -19 19 -37 35
-40 35 -3 0 -21 -16 -40 -35z m40 -35 c0 -34 -2 -35 -30 -18 -18 11 -18 14 -3
30 23 26 33 22 33 -12z m-121 -62 c38 -51 42 -88 6 -43 -22 27 -50 85 -40 85
2 0 17 -19 34 -42z m256 -7 c-27 -55 -45 -72 -45 -44 0 16 54 93 66 93 2 0 -7
-22 -21 -49z m-147 27 c7 -7 12 -30 11 -52 l-1 -41 -13 30 c-29 69 -28 94 3
63z"/>
<path d="M180 279 c0 -8 32 -46 70 -84 l70 -69 70 69 c39 38 70 76 70 84 0 9
-31 -16 -70 -54 l-70 -69 -70 69 c-38 38 -70 63 -70 54z"/>
</g>
</svg>
