<?xml version="1.0" standalone="no"?>
<!DOCTYPE svg PUBLIC "-//W3C//DTD SVG 20010904//EN"
 "http://www.w3.org/TR/2001/REC-SVG-20010904/DTD/svg10.dtd">
<svg version="1.0" xmlns="http://www.w3.org/2000/svg"
 width="64.000000pt" height="64.000000pt" viewBox="0 0 64.000000 64.000000"
 preserveAspectRatio="xMidYMid meet">

<g transform="translate(0.000000,64.000000) scale(0.100000,-0.100000)"
fill="#000000" stroke="none">
<path d="M307 503 c-2 -5 -5 -26 -6 -48 -5 -98 -9 -104 -45 -80 l-26 17 36
-98 c20 -55 39 -107 41 -116 3 -10 8 -18 12 -18 4 0 25 48 46 107 22 58 42
111 44 116 2 5 -9 1 -23 -8 -15 -10 -30 -15 -33 -11 -4 3 -8 33 -9 66 -1 33
-5 64 -9 70 -7 12 -22 13 -28 3z m12 -215 l-1 -63 -15 47 c-16 46 -13 78 7 78
6 0 10 -26 9 -62z"/>
<path d="M195 337 c37 -56 53 -68 41 -30 -3 11 -22 35 -42 54 l-37 34 38 -58z"/>
<path d="M436 348 c-20 -23 -36 -51 -36 -62 1 -21 1 -21 12 -1 6 11 24 39 40
63 37 54 30 54 -16 0z"/>
<path d="M184 269 c-4 -6 22 -40 61 -78 47 -46 65 -59 60 -43 -4 13 -27 43
-51 68 -24 25 -44 50 -44 55 0 13 -17 11 -26 -2z"/>
<path d="M430 265 c0 -8 -16 -27 -36 -42 -33 -26 -70 -80 -62 -89 9 -8 130
125 124 135 -10 16 -26 14 -26 -4z"/>
</g>
</svg>
