<?xml version="1.0" standalone="no"?>
<!DOCTYPE svg PUBLIC "-//W3C//DTD SVG 20010904//EN"
 "http://www.w3.org/TR/2001/REC-SVG-20010904/DTD/svg10.dtd">
<svg version="1.0" xmlns="http://www.w3.org/2000/svg"
 width="64.000000pt" height="64.000000pt" viewBox="0 0 64.000000 64.000000"
 preserveAspectRatio="xMidYMid meet">

<g transform="translate(0.000000,64.000000) scale(0.100000,-0.100000)"
fill="#000000" stroke="none">
<path d="M198 475 c-49 -33 -68 -62 -68 -106 0 -50 37 -93 92 -108 24 -7 49
-15 57 -18 8 -3 -11 24 -42 61 -71 84 -73 115 -8 172 34 30 16 30 -31 -1z"/>
<path d="M424 460 c32 -36 37 -47 32 -73 -4 -18 -21 -47 -39 -67 -18 -19 -41
-45 -51 -57 l-18 -21 54 15 c134 37 148 162 25 225 l-42 21 39 -43z"/>
<path d="M247 469 c-21 -12 -47 -61 -46 -86 0 -11 5 -6 11 12 6 17 22 42 36
58 27 29 27 32 -1 16z"/>
<path d="M387 459 c12 -13 29 -40 37 -59 8 -19 15 -29 16 -22 0 27 -29 81 -52
93 l-23 12 22 -24z"/>
<path d="M260 420 l-21 -21 30 -34 c16 -18 32 -43 36 -54 9 -29 19 -26 38 12
9 17 24 45 34 60 17 27 17 29 -1 43 -17 12 -22 12 -38 -3 -17 -15 -19 -15 -37
1 -18 17 -20 17 -41 -4z m60 -68 l0 -26 -29 34 c-22 27 -26 38 -18 49 9 11 14
9 29 -9 10 -12 18 -34 18 -48z"/>
<path d="M240 345 c-18 -21 -3 -32 16 -13 10 9 12 18 6 22 -5 3 -15 -1 -22 -9z"/>
<path d="M375 350 c-8 -13 3 -30 21 -30 18 0 18 14 0 29 -10 8 -16 9 -21 1z"/>
<path d="M301 254 c0 -11 3 -14 6 -6 3 7 2 16 -1 19 -3 4 -6 -2 -5 -13z"/>
<path d="M258 188 l62 -63 62 63 c72 71 58 85 -17 17 l-49 -45 -46 45 c-25 25
-52 45 -60 45 -8 0 13 -28 48 -62z"/>
</g>
</svg>
