<svg width="116" height="114" viewBox="0 0 116 114" fill="none" xmlns="http://www.w3.org/2000/svg">
<g filter="url(#filter0_d_528_806)">
<path d="M58.2228 11.4001C32.8486 11.4001 12.0879 31.9201 12.0879 57.0001C12.0879 82.0801 32.8486 102.6 58.2228 102.6C83.597 102.6 104.358 82.0801 104.358 57.0001C104.358 31.9201 83.597 11.4001 58.2228 11.4001ZM76.4115 79.8001C75.5657 79.8001 75.1428 79.3821 74.297 78.9641C67.9534 75.1983 59.9183 73.1121 51.4602 73.1121C46.8083 73.1121 41.7334 73.9481 37.5044 74.7841C36.6586 74.7841 35.8128 75.2021 35.3899 75.2021C33.6982 75.2021 32.4295 73.9481 32.4295 72.2761C32.4295 70.6041 33.2753 69.3501 34.967 69.3501C40.4647 68.0961 45.9663 67.2601 51.8869 67.2601C61.6137 67.2601 70.4947 69.7681 78.1069 73.9481C78.9527 74.7841 79.7985 75.2021 79.7985 76.8741C78.9451 78.9641 77.6763 79.8001 76.4115 79.8001ZM81.0596 68.0999C80.2138 68.0999 79.368 67.6819 78.5222 67.2639C71.3328 62.6659 61.1793 60.1579 50.1876 60.1579C44.6899 60.1579 39.6112 60.9939 35.8089 61.8299C34.9631 62.2479 34.5402 62.2479 33.6944 62.2479C31.5799 62.2479 30.3073 60.5759 30.3073 58.9001C30.3073 56.8101 31.1531 55.9741 33.2677 55.1343C38.3425 53.8803 43.4212 52.6263 50.6105 52.6263C62.4518 52.6263 73.4473 55.5523 82.755 60.9863C84.0237 61.8223 84.8695 63.0763 84.8695 64.3341C84.4428 66.4241 83.1779 68.0999 81.0596 68.0999ZM86.5573 54.7201C85.7115 54.7201 85.2886 54.3021 84.0199 53.8841C75.5618 49.2861 63.2976 46.3601 51.4563 46.3601C45.5357 46.3601 39.1921 47.1961 33.6906 48.4501C32.8448 48.4501 32.4218 48.8681 31.1531 48.8681C28.6157 49.2899 26.9241 47.1961 26.9241 44.6919C26.9241 42.1877 28.1928 40.9261 29.8844 40.5119C36.6547 38.8361 43.8441 38.0001 51.4563 38.0001C64.5663 38.0001 78.0992 40.9261 88.6757 46.3601C89.9444 47.1961 91.2131 48.4501 91.2131 50.5401C90.7902 53.0481 89.0947 54.7201 86.5573 54.7201Z" fill="black"/>
</g>
<defs>
<filter id="filter0_d_528_806" x="8.08789" y="11.4001" width="100.27" height="100.2" filterUnits="userSpaceOnUse" color-interpolation-filters="sRGB">
<feFlood flood-opacity="0" result="BackgroundImageFix"/>
<feColorMatrix in="SourceAlpha" type="matrix" values="0 0 0 0 0 0 0 0 0 0 0 0 0 0 0 0 0 0 127 0" result="hardAlpha"/>
<feOffset dy="5"/>
<feGaussianBlur stdDeviation="2"/>
<feComposite in2="hardAlpha" operator="out"/>
<feColorMatrix type="matrix" values="0 0 0 0 0 0 0 0 0 0 0 0 0 0 0 0 0 0 0.3 0"/>
<feBlend mode="normal" in2="BackgroundImageFix" result="effect1_dropShadow_528_806"/>
<feBlend mode="normal" in="SourceGraphic" in2="effect1_dropShadow_528_806" result="shape"/>
</filter>
</defs>
</svg>
