<svg width="116" height="114" viewBox="0 0 116 114" fill="none" xmlns="http://www.w3.org/2000/svg">
<g filter="url(#filter0_d_528_802)">
<path d="M91.9711 23.75V28.5H106.388V23.75H91.9711ZM53.5253 33.25V38H67.9425V33.25H53.5253ZM91.9711 33.25V38H106.388V33.25H91.9711ZM53.5253 42.75V47.5H67.9425V42.75H53.5253ZM91.9711 42.75V47.5H106.388V42.75H91.9711ZM15.0796 52.25V57H29.4967V52.25H15.0796ZM53.5253 52.25V57H67.9425V52.25H53.5253ZM72.7482 52.25V57H87.1654V52.25H72.7482ZM91.9711 52.25V57H106.388V52.25H91.9711ZM15.0796 61.75V66.5H29.4967V61.75H15.0796ZM53.5253 61.75V66.5H67.9425V61.75H53.5253ZM72.7482 61.75V66.5H87.1654V61.75H72.7482ZM91.9711 61.75V66.5H106.388V61.75H91.9711ZM15.0796 71.25V76H29.4967V71.25H15.0796ZM34.3025 71.25V76H48.7196V71.25H34.3025ZM53.5253 71.25V76H67.9425V71.25H53.5253ZM72.7482 71.25V76H87.1654V71.25H72.7482ZM91.9711 71.25V76H106.388V71.25H91.9711ZM15.0796 80.75V85.5H29.4967V80.75H15.0796ZM34.3025 80.75V85.5H48.7196V80.75H34.3025ZM53.5253 80.75V85.5H67.9425V80.75H53.5253ZM72.7482 80.75V85.5H87.1654V80.75H72.7482ZM91.9711 80.75V85.5H106.388V80.75H91.9711ZM15.0796 90.25V95H29.4967V90.25H15.0796ZM34.3025 90.25V95H48.7196V90.25H34.3025ZM53.5253 90.25V95H67.9425V90.25H53.5253ZM72.7482 90.25V95H87.1654V90.25H72.7482ZM91.9711 90.25V95H106.388V90.25H91.9711Z" fill="black"/>
</g>
<defs>
<filter id="filter0_d_528_802" x="11.0796" y="23.75" width="99.3086" height="81.25" filterUnits="userSpaceOnUse" color-interpolation-filters="sRGB">
<feFlood flood-opacity="0" result="BackgroundImageFix"/>
<feColorMatrix in="SourceAlpha" type="matrix" values="0 0 0 0 0 0 0 0 0 0 0 0 0 0 0 0 0 0 127 0" result="hardAlpha"/>
<feOffset dy="6"/>
<feGaussianBlur stdDeviation="2"/>
<feComposite in2="hardAlpha" operator="out"/>
<feColorMatrix type="matrix" values="0 0 0 0 0 0 0 0 0 0 0 0 0 0 0 0 0 0 0.3 0"/>
<feBlend mode="normal" in2="BackgroundImageFix" result="effect1_dropShadow_528_802"/>
<feBlend mode="normal" in="SourceGraphic" in2="effect1_dropShadow_528_802" result="shape"/>
</filter>
</defs>
</svg>
