<svg width="311" height="317" viewBox="0 0 311 317" fill="none" xmlns="http://www.w3.org/2000/svg">
<path d="M215.806 26.616C213.813 30.9025 211.42 35.6874 210.623 37.382C209.726 38.977 207.832 42.8648 206.237 46.0547C203.047 52.5343 190.188 67.2877 182.912 72.8701C174.14 79.6487 161.281 88.2217 151.513 93.7044C138.754 100.882 118.22 114.339 106.657 123.112C94.3965 132.382 74.0619 152.718 65.7885 163.883C62.2 168.668 57.8141 174.649 56.1196 177.042C47.2481 189.004 36.7817 214.723 32.7945 233.763C30.1032 247.22 30.4022 267.257 33.3926 273.338C35.3862 277.425 39.8718 280.116 44.5567 280.116C57.8141 280.017 85.824 252.105 114.93 210.037C116.027 208.442 116.127 210.735 115.828 223.096C115.529 233.164 115.828 239.146 116.625 241.638C117.821 245.326 122.107 251.208 123.603 251.208C124.3 251.208 131.976 240.043 137.657 230.772L140.05 226.785L140.448 229.775C140.548 231.37 140.249 235.856 139.551 239.544C138.355 246.223 138.654 249.912 139.95 244.728C141.346 239.245 157.095 207.346 158.49 207.346C158.789 207.346 159.687 208.841 160.484 210.536C161.68 213.128 161.979 217.314 161.78 229.077C161.68 237.75 161.979 244.23 162.478 244.23C162.976 244.23 163.175 244.927 162.876 245.725C162.478 246.522 162.876 247.918 163.574 248.815C165.468 251.208 169.355 249.712 174.638 244.529C179.224 240.043 184.307 230.772 182.812 229.476C182.413 229.077 181.915 229.376 181.716 230.074C181.417 230.772 179.822 233.264 178.028 235.557C173.941 240.84 169.455 243.532 165.966 242.635L163.375 241.937L164.072 218.71C164.571 202.262 164.471 195.384 163.674 195.384C162.179 195.384 159.288 199.67 155.301 207.844C151.214 216.318 144.535 226.186 144.535 223.794C144.535 221.103 148.423 202.661 151.114 192.393C152.51 187.209 154.503 179.534 155.6 175.447C157.793 166.774 164.072 148.332 166.066 144.345C168.857 138.962 176.632 128.594 177.928 128.594C179.622 128.594 180.52 126.003 179.822 123.012C178.725 118.526 176.532 120.221 170.851 130.189C168.359 134.476 165.169 141.155 163.873 145.042C162.478 148.83 160.982 152.918 160.484 154.014C158.49 158.799 149.22 189.702 148.124 195.384C144.436 213.925 140.349 223.495 132.075 233.663C127.689 239.146 122.406 242.136 120.313 240.442C116.824 237.551 115.828 226.386 117.721 212.629C118.718 205.352 119.316 204.056 127.59 190.898C142.542 167.272 150.117 153.516 155.4 140.656C158.49 133.18 159.487 129.392 159.487 125.305C159.487 116.233 155.899 115.436 148.522 122.813C138.355 133.08 127.889 157.304 121.709 185.116C118.718 198.275 117.323 202.76 115.03 205.95C88.2164 244.03 68.5795 265.164 53.0295 272.839C46.65 275.93 41.9651 275.531 37.7785 271.543C33.592 267.556 32.3958 262.97 32.5952 251.706C32.6949 239.046 34.7881 228.778 39.8718 214.324C46.8494 194.686 50.9362 187.309 63.4958 171.06C65.2901 168.867 68.3801 164.78 70.4734 162.089C75.0587 156.207 90.2099 140.756 97.4865 134.675C113.934 120.919 133.172 107.959 154.005 96.6949C175.635 84.9321 196.767 66.1912 207.632 48.9456C211.42 43.1638 214.012 40.1732 214.71 40.9707C215.208 41.4692 210.124 61.3066 207.333 69.7798C206.237 73.3685 204.044 80.0475 202.648 84.7327C201.253 89.4179 199.658 93.6047 199.259 94.1031C198.761 94.7012 198.362 95.6981 198.362 96.4956C198.362 97.2931 196.568 101.779 194.275 106.564C190.089 115.336 185.105 128.694 185.803 129.292C186.002 129.492 187.198 127.099 188.494 123.909C189.69 120.719 191.285 117.23 191.983 116.134C196.668 108.558 205.938 81.2437 213.214 53.7305C215.208 46.2541 217.301 39.5751 217.899 38.7776C218.996 37.4817 220.89 18.9402 219.993 18.9402C219.793 18.9402 217.899 22.4292 215.806 26.616ZM156.198 132.582C155.6 137.765 149.121 151.622 141.545 163.883C139.352 167.571 137.558 170.662 137.558 170.961C137.558 171.26 133.969 176.942 129.583 183.621C125.197 190.399 121.609 195.384 121.609 194.686C121.609 190.3 126.095 172.157 129.384 162.886C138.156 138.762 145.831 127.597 153.905 127.597C156.796 127.597 156.796 127.597 156.198 132.582Z" fill="black"/>
<path d="M260.961 135.373C256.974 138.064 251.192 143.049 248.202 146.538C238.533 157.603 235.343 160.693 233.649 160.294C232.652 160.095 230.858 158.002 229.562 155.509C227.269 151.223 221.288 143.049 217.6 139.261C211.919 133.379 212.018 143.447 217.8 156.706C219.793 161.192 223.681 168.768 226.372 173.453C229.063 178.138 231.256 182.724 231.256 183.621C231.256 184.518 228.565 187.808 225.276 190.997C219.295 196.779 218.099 198.972 220.69 199.969C221.488 200.268 224.179 198.275 227.269 194.985C230.16 191.895 232.851 189.403 233.35 189.403C233.748 189.403 234.546 190.599 235.044 192.094C235.842 194.486 236.141 194.686 236.739 193.091C237.138 192.094 237.038 190.3 236.539 189.103C235.642 187.209 236.141 186.213 240.128 181.826C245.511 175.746 250.295 169.964 255.678 162.687C257.871 159.796 261.758 154.712 264.45 151.522C267.041 148.232 269.135 145.441 269.135 145.142C269.135 144.843 270.53 142.351 272.125 139.56C275.614 133.579 275.514 134.177 273.521 132.183C271.128 129.691 268.935 130.289 260.961 135.373ZM262.057 146.737C259.765 151.123 251.691 161.79 242.819 172.157C235.543 180.63 233.748 182.325 232.752 181.228C230.459 178.836 219.295 156.108 218.597 152.519L217.999 149.13L222.285 152.519C224.678 154.413 228.366 158.799 230.559 162.188C232.752 165.677 235.044 168.469 235.742 168.469C236.539 168.469 239.231 165.179 241.822 161.192C244.414 157.304 250.196 150.425 254.581 146.039L262.655 138.064L262.955 141.254C263.154 143.049 262.755 145.441 262.057 146.737Z" fill="black"/>
<path d="M186.002 209.938C185.603 212.629 185.105 216.019 184.806 217.514C184.108 221.003 186.102 221.202 186.999 217.813C187.597 215.321 191.883 212.33 194.873 212.33C195.771 212.33 196.468 213.327 196.568 214.822C196.668 216.218 196.867 218.81 196.967 220.504C197.066 222.299 196.568 226.984 195.771 230.971C193.279 243.731 194.574 251.208 199.259 251.208C201.054 251.208 209.726 245.027 212.018 242.236C213.414 240.541 214.61 236.255 213.912 235.557C213.713 235.258 211.62 236.953 209.327 239.146C205.838 242.535 204.443 243.233 201.153 243.233C198.462 243.233 197.066 242.734 196.668 241.538C195.87 239.445 198.562 228.878 202.349 219.209C206.735 208.143 206.835 208.343 196.867 208.343C190.188 208.343 188.295 208.044 187.597 206.748C186.899 205.452 186.5 206.249 186.002 209.938Z" fill="black"/>
<path d="M225.774 212.928C221.189 222.598 219.195 231.769 219.096 243.631C218.996 250.211 220.391 252.204 224.977 252.204C229.363 252.204 231.555 251.008 237.636 245.326C243.019 240.142 246.208 234.66 246.208 230.573C246.208 228.18 245.909 228.479 243.816 232.865C239.829 241.538 230.16 247.619 224.279 245.226C220.491 243.631 220.092 242.036 221.288 233.364C222.285 226.286 224.578 219.508 228.366 212.231C230.459 208.143 230.658 207.346 229.363 207.346C228.864 207.346 227.17 209.838 225.774 212.928Z" fill="black"/>
</svg>
