<svg width="402" height="194" viewBox="0 0 402 194" fill="none" xmlns="http://www.w3.org/2000/svg">
<path d="M283.873 32.9434C280.576 33.3094 275.723 33.401 273.067 33.1264C269.496 32.7604 267.848 33.0349 266.657 34.133C264.734 35.8717 259.057 37.1528 247.152 38.434C230.212 40.1727 199.901 47.5849 175.36 55.9123C169.316 57.9255 161.899 60.3962 158.877 61.3113C153.291 62.9585 149.812 64.4227 141.478 68.1745C139.006 69.2727 133.786 71.6519 130.032 73.2991C124.08 75.9528 99.2639 88.9472 95.2347 91.5094C94.5022 92.0585 92.0297 93.4311 89.7404 94.7123C87.4511 95.9934 82.9641 98.6472 79.7591 100.66C76.6457 102.674 73.8069 104.321 73.5322 104.321C72.8912 104.321 53.3864 117.407 45.786 122.897C42.0315 125.642 35.8962 130.126 32.2334 132.872C22.0689 140.192 10.073 150.075 10.073 151.082C10.073 151.54 14.1022 151.906 19.1386 151.906H28.2958L30.8598 148.611C33.6985 144.768 39.6507 140.284 49.4489 134.519C53.2033 132.231 57.7819 129.486 59.5218 128.296C65.7486 124.087 78.935 118.322 93.4033 113.472C96.1505 112.557 101.553 110.726 105.308 109.354C109.062 107.981 116.754 105.693 122.248 104.321C127.834 102.857 137.266 100.386 143.31 98.8302C149.354 97.2745 157.504 95.3528 161.35 94.7123C165.196 94.0717 168.767 93.2481 169.225 92.9736C169.683 92.6991 174.536 91.6925 180.03 90.6859C185.524 89.6793 192.942 88.2151 196.605 87.3915C200.268 86.6594 206.403 85.5613 210.34 85.1038C214.278 84.5547 219.314 83.7311 221.604 83.2736C231.951 81.2604 233.325 81.3519 230.578 84.3717C228.93 86.0189 222.519 95.9019 222.519 96.7255C222.519 97.0915 219.864 101.301 216.659 106.059C209.883 116.4 198.528 137.905 198.894 139.735C199.077 140.467 201 141.748 203.198 142.48C206.952 143.761 207.227 143.67 209.242 141.84C210.432 140.742 212.721 136.532 214.278 132.414C217.849 123.446 220.78 118.047 229.387 104.778C232.959 99.1962 237.537 92.0585 239.46 88.7642C241.383 85.4698 244.222 81.4434 245.779 79.8877C247.244 78.2406 248.617 76.3189 248.709 75.5868C248.801 74.9462 251.09 71.1944 253.745 67.2594C256.493 63.4161 260.339 57.9255 262.353 54.9972C269.771 44.3821 270.137 44.016 277.829 43.0094C294.129 40.9047 298.249 40.4472 301.271 40.9047C303.835 41.2708 304.934 40.9047 306.674 38.983C307.864 37.7019 308.597 36.1462 308.322 35.4142C307.223 32.4859 297.15 31.4793 283.873 32.9434ZM253.104 50.9708C251.365 53.4415 247.152 59.2981 243.764 64.0566C236.713 73.9396 238.728 72.933 218.399 75.9528C186.898 80.4368 137.358 90.9604 118.311 97.183C115.106 98.1896 112.267 98.8302 112.084 98.5557C111.535 98.0981 124.904 91.4179 130.856 89.3132C132.688 88.5812 139.922 85.4698 146.973 82.45C161.166 76.1359 168.309 73.2076 175.818 70.5538C188.73 66.0698 217.3 56.5528 224.351 54.5396C240.284 49.9642 252.372 46.7613 254.295 46.7613C256.218 46.6698 256.126 46.9444 253.104 50.9708Z" fill="black"/>
<path d="M280.393 52.2519C279.569 53.8075 277.92 56.2783 276.821 57.6509C275.631 59.0236 273.159 62.684 271.327 65.7953C265.009 75.9528 250.632 96.4509 244.863 103.406C241.749 107.158 236.438 114.387 233.05 119.42C229.662 124.453 226.091 129.577 225.083 130.767C222.886 133.695 222.977 136.258 225.541 137.173C231.036 139.277 231.585 139.186 233.6 137.081C236.438 133.97 244.588 122.897 248.617 116.675C253.288 109.445 257.408 104.321 258.507 104.321C259.514 104.321 258.69 124.087 257.5 130.401C257.042 132.414 256.95 136.349 257.225 139.094C257.683 143.304 258.141 144.31 260.064 145.225C265.467 147.696 267.206 147.696 270.137 144.768C273.159 141.748 273.616 140.009 271.51 140.009C270.686 140.009 269.679 138.911 269.129 137.539C268.397 135.617 268.672 134.244 270.503 130.492C273.891 123.629 283.323 110.726 284.971 110.726C285.521 110.726 288.817 109.262 292.297 107.524L298.524 104.321L297.242 107.249C296.601 108.896 294.037 114.753 291.748 120.243C289.367 125.642 287.535 130.767 287.718 131.591C287.993 133.146 294.312 134.976 296.326 134.153C296.967 133.878 297.608 134.519 297.791 135.617C297.975 136.898 299.257 137.905 302.004 138.82C305.667 140.009 306.216 140.009 310.703 137.905C315.831 135.525 321.783 131.591 332.314 123.538C336.984 120.06 339.64 117.224 341.196 114.204C342.387 111.825 343.394 109.445 343.394 108.988C343.394 108.439 341.837 107.798 340.006 107.432C336.984 106.883 336.343 107.066 333.962 109.811C331.032 113.106 315.831 124.727 315.282 124.087C314.824 123.721 316.655 120.426 322.699 110.452C328.468 100.935 333.871 89.9538 336.618 82.084C340.83 70.2792 343.486 60.0302 343.211 56.7358C342.936 53.9906 342.387 53.2585 338.816 51.4283C335.244 49.5981 334.603 49.5981 333.413 50.7877C332.589 51.5198 331.948 53.533 331.856 55.0887C331.307 67.3509 325.171 84.9208 315.465 102.033C297.608 133.512 297.059 133.604 310.978 102.674C312.168 100.02 313.175 97.5491 313.175 97.2745C313.175 96.9085 315.098 94.8953 317.571 92.6075C321.875 88.6726 321.875 88.6726 319.86 87.3L317.937 85.9274L323.798 73.0245C331.49 56.0038 331.215 57.1019 327.644 54.9057C322.333 51.7028 319.585 52.3434 314.366 58.2915C305.483 68.3575 288.176 89.3132 279.752 100.203C276.73 104.046 273.342 108.347 272.243 109.72L270.228 112.099V107.066C270.228 104.321 270.686 99.6538 271.327 96.817C272.426 91.784 272.701 91.4179 281.583 84.0057C286.62 79.7962 293.213 74.7632 296.143 72.75C305.209 66.6189 312.626 59.9387 311.893 58.7491C311.619 58.2915 309.604 57.3764 307.315 56.7358C302.919 55.5462 300.996 56.0953 296.693 60.1217C291.107 65.3377 278.378 75.0377 278.378 74.1226C278.378 73.116 285.429 62.2264 286.62 61.3113C286.986 61.0368 288.451 58.8406 289.825 56.3698C292.297 52.0689 292.389 51.8858 290.74 50.6962C289.825 49.9641 287.444 49.4151 285.521 49.4151C282.499 49.4151 281.766 49.8726 280.393 52.2519ZM309.604 80.2538C309.055 81.1689 307.864 83.9142 306.949 86.4764C305.483 90.3198 304.385 91.5094 300.264 93.9802C297.608 95.6274 295.044 97 294.678 97C293.854 97 302.37 85.9274 307.132 80.8028C309.97 77.6915 311.252 77.3255 309.604 80.2538Z" fill="black"/>
<path d="M377.917 58.8406C373.796 64.2396 360.884 87.3915 353.467 102.765C345.5 119.237 337.9 136.075 337.9 137.264C337.9 137.63 338.816 138.179 340.006 138.454C341.105 138.637 342.753 139.186 343.577 139.552C344.951 140.101 346.874 136.624 356.031 118.322C367.386 95.3528 378.283 75.1292 385.059 64.5142C387.349 61.0368 388.814 57.9255 388.448 57.5594C388.081 57.1934 386.158 56.6443 384.052 56.2783C380.572 55.7292 380.206 55.9123 377.917 58.8406Z" fill="black"/>
</svg>
