<svg width="349" height="353" viewBox="0 0 349 353" fill="none" xmlns="http://www.w3.org/2000/svg">
<path d="M234.649 30.4813C234.649 32.1622 233.527 36.1965 232.293 39.3343C231.171 42.5841 230.385 45.4978 230.61 45.946C230.946 46.3943 230.385 47.4028 229.487 48.1873C228.141 49.3079 228.141 49.8682 229.712 52.3336C230.946 54.2387 231.507 57.2644 231.395 61.9711C231.058 71.6086 228.029 104.891 226.121 119.348C225.223 126.071 224.438 132.459 224.438 133.58C224.438 134.924 223.091 135.485 218.714 135.821C215.572 135.933 212.767 135.821 212.43 135.261C211.757 134.14 207.605 134.252 207.605 135.373C207.605 137.278 199.413 136.717 195.71 134.588C192.567 132.683 191.333 132.571 189.089 133.58C185.834 135.037 185.722 135.373 187.966 138.286C189.425 140.191 191.221 140.416 201.657 140.64C208.39 140.64 215.797 140.416 218.266 139.967C221.071 139.519 222.979 139.631 223.428 140.303C224.55 142.097 225.223 138.959 227.804 120.58C229.039 111.279 230.385 103.547 230.61 103.21C231.956 101.978 231.058 130.778 229.712 133.356C228.477 135.597 228.477 137.054 229.712 141.088C230.497 143.777 231.283 147.812 231.283 150.053C231.507 153.079 231.732 152.406 232.405 147.363C232.966 143.665 233.415 139.855 233.303 138.959C233.303 138.062 232.966 125.063 232.742 110.046C232.293 88.7543 232.63 80.0133 233.976 69.7035C235.884 56.3679 236.894 47.8511 236.894 44.8254C236.894 41.1273 234.874 27.6797 234.649 30.4813Z" fill="black"/>
<path d="M140.834 64.5486C136.57 65.333 131.184 66.0054 129.051 66.1174C126.919 66.1174 124.338 66.6778 123.44 67.3501C122.206 68.1346 123.104 68.3587 127.031 68.1346C129.837 67.9105 131.969 68.1346 131.632 68.5828C131.408 69.1432 130.061 69.4794 128.715 69.4794C127.256 69.4794 118.166 71.4965 108.291 73.8498C98.4157 76.3152 84.5005 79.5651 77.4308 81.134C63.179 84.2717 52.6305 87.1854 54.5382 87.2974C55.3237 87.4095 68.9022 84.3838 84.8372 80.5736C125.124 71.1603 138.59 68.4708 141.059 69.0311C142.293 69.3673 143.864 68.807 144.65 67.9105C145.547 66.9019 146.782 66.1174 147.455 66.1174C148.129 66.1174 149.7 65.333 150.822 64.4365C153.066 62.7555 153.066 62.7555 150.822 62.8676C149.7 62.9797 145.211 63.6521 140.834 64.5486Z" fill="black"/>
<path d="M249.687 83.5994C249.238 86.0648 248.452 89.4267 248.003 91.3317C246.096 97.8314 245.983 103.098 247.667 107.805C249.911 114.305 248.677 124.615 245.198 128.649L242.729 131.563L241.382 125.735C240.709 122.485 240.148 115.425 240.036 110.046C240.036 104.667 239.587 99.2882 239.026 98.0555C237.343 94.2454 237.791 116.322 239.587 126.071C240.597 131.114 241.495 145.01 241.719 158.01C242.729 199.921 247.779 232.308 260.572 276.237C266.295 296.296 269.1 302.908 275.497 312.545C281.893 321.958 289.749 327.674 296.482 327.674C302.878 327.674 309.836 321.846 308.265 317.812C307.591 316.131 307.03 316.355 302.878 319.045C292.105 326.105 280.322 319.829 271.457 302.347C261.357 282.4 247.218 222.558 246.544 196.896C246.432 191.517 245.983 187.146 245.534 187.146C244.973 187.146 244.637 186.025 244.637 184.569C244.637 182.776 244.973 182.551 245.647 183.56C247.554 186.586 248.228 180.983 249.238 155.208C249.687 140.976 250.697 123.83 251.37 117.106C252.043 110.27 252.492 99.5124 252.492 93.0127C252.492 80.9098 250.921 75.867 249.687 83.5994ZM247.33 153.191C246.993 160.475 246.432 169.664 246.096 173.698L245.31 180.983L244.525 175.94C243.515 169.552 243.29 141.872 244.3 140.864C244.637 140.416 245.647 140.079 246.432 140.079C247.442 140.079 247.667 143.217 247.33 153.191Z" fill="black"/>
<path d="M184.151 98.7279C183.366 105.564 181.907 113.072 181.009 115.313L179.213 119.348L176.52 108.141C175.061 101.978 173.378 95.366 172.817 93.573C171.021 87.9698 172.705 100.073 175.174 110.383C176.296 115.313 177.194 121.589 177.194 124.39C177.081 130.89 178.316 137.95 179.999 139.967C181.346 141.76 181.346 141.648 184.039 117.443C184.824 110.27 185.834 103.883 186.283 103.21C186.844 102.314 190.323 102.202 198.403 102.874C208.278 103.659 210.298 103.435 213.44 101.754C215.46 100.745 219.051 99.8486 221.295 99.7365C228.029 99.7365 227.243 97.7194 220.285 97.159C216.694 96.8228 211.645 96.2625 208.951 95.8143C206.258 95.366 203.565 95.4781 202.779 96.1505C200.872 97.6073 189.874 100.297 188.976 99.4003C188.528 99.0641 188.079 96.2625 187.966 93.3489C187.518 86.0648 187.518 86.2889 186.508 86.2889C185.947 86.2889 184.937 91.8921 184.151 98.7279Z" fill="black"/>
<path d="M17.0573 88.6422C17.394 89.5387 19.5261 90.5473 21.9949 91.1076C31.4213 93.1248 30.0747 94.9178 18.8528 95.1419C15.8229 95.254 13.4663 95.7022 13.4663 96.3746C13.4663 98.0556 16.6084 97.7194 26.0348 95.366C32.6557 93.6851 35.5734 93.461 39.2766 94.2454C41.9698 94.8057 59.7004 97.6073 78.8898 100.297C97.967 102.986 113.79 105.452 114.126 105.676C114.351 106.012 108.628 108.59 101.334 111.391C94.0393 114.193 84.2763 118.675 79.6753 121.365L71.2589 126.071L51.0596 125.511C34.9001 125.063 30.0747 124.503 27.0448 123.046C23.4538 121.141 23.1171 121.141 21.7705 123.046C20.985 124.054 20.1994 125.287 20.1994 125.735C20.1994 126.296 26.9325 126.632 35.1245 126.632C43.4287 126.632 54.0895 126.968 59.0271 127.416L67.8924 128.089L57.7927 133.019C50.7229 136.381 48.9274 137.614 51.6207 137.166C53.7528 136.83 57.7927 136.045 60.5981 135.485C63.4036 135.037 68.0046 134.588 70.9223 134.588C73.8399 134.476 76.5332 133.916 76.9821 133.244C77.5432 132.347 75.411 132.123 69.6879 132.459C65.3113 132.683 61.7203 132.683 61.7203 132.571C61.7203 132.459 63.628 131.338 65.9846 130.106C69.9123 128.089 71.0345 128.089 93.1416 129.545C126.47 131.675 153.852 135.261 154.637 137.614C154.862 138.286 156.433 138.398 158.677 137.838C160.697 137.39 163.952 137.278 165.859 137.614C171.695 138.398 170.011 137.054 161.932 134.588C153.515 131.899 152.169 131.787 153.179 133.356C154.076 134.812 154.189 134.812 139.151 132.235C129.5 130.554 84.6129 126.632 74.6255 126.632C71.0345 126.632 91.7949 116.098 104.139 111.615C108.628 110.046 113.678 108.029 115.361 107.133C117.942 105.788 120.747 105.788 134.101 107.133C142.742 107.917 153.515 108.59 158.004 108.702C166.084 108.702 168.665 107.357 163.054 105.9C161.483 105.564 158.789 104.219 157.331 102.986C153.403 99.9606 152.169 100.297 153.066 104.331C153.627 107.581 153.515 107.693 150.598 107.133C148.914 106.797 141.844 106.236 134.887 105.788C127.817 105.452 122.543 104.667 123.104 104.219C124.002 103.435 132.418 100.857 146.333 96.9349C149.924 95.9264 152.617 94.9178 152.393 94.6937C151.72 94.0213 135.111 98.2797 125.909 101.53L117.717 104.443L101.782 102.09C93.0293 100.857 76.421 98.5038 64.8625 96.9349C53.3039 95.254 42.4187 93.573 40.7354 93.0127C37.7055 92.2283 37.8178 92.1162 42.9798 90.7714C45.8975 89.987 48.1419 89.0905 47.8052 88.8664C47.5808 88.5302 44.2142 89.2026 40.3988 90.3232C34.4512 92.0041 32.6557 92.0041 27.157 90.7714C23.6782 89.987 19.8628 88.8664 18.6284 88.306C17.0573 87.4095 16.7206 87.5216 17.0573 88.6422Z" fill="black"/>
<path d="M50.2738 88.194C51.0593 88.5301 52.0693 88.4181 52.406 88.0819C52.8548 87.7457 52.1815 87.4095 50.9471 87.5216C49.7127 87.5216 49.3761 87.8578 50.2738 88.194Z" fill="black"/>
<path d="M278.864 92.1162C278.415 93.1247 278.527 96.1505 279.088 98.84C280.098 103.435 279.088 109.374 276.844 112.848C276.395 113.52 277.068 116.21 278.415 118.787C280.098 121.925 280.659 124.503 280.21 127.08C279.873 129.097 279.986 131.45 280.547 132.235C281.557 133.804 282.118 130.33 283.352 115.986C284.138 107.917 286.158 103.098 288.851 103.098C290.983 103.098 292.105 107.693 292.442 117.667C292.554 122.261 292.666 127.192 292.779 128.537C292.779 129.882 294.237 132.459 295.809 134.364C298.277 137.278 299.512 137.838 303.776 137.838C307.479 137.838 309.275 138.398 310.734 140.191C312.305 142.096 313.315 142.433 316.793 141.76C319.711 141.2 320.946 140.416 320.946 138.959C320.946 137.838 321.17 136.269 321.507 135.373C321.955 134.14 320.272 134.14 312.08 134.924C303.439 135.821 301.644 135.709 299.175 134.028L296.257 132.235V114.417C296.257 98.84 296.033 96.2625 294.237 94.1333C291.32 90.5473 286.831 91.78 285.148 96.4867C283.801 100.409 280.996 100.409 281.445 96.4867C281.557 95.0298 281.22 93.1247 280.659 92.1162C279.649 90.3232 279.537 90.3232 278.864 92.1162Z" fill="black"/>
<path d="M257.093 94.2454C256.981 95.254 257.767 100.409 258.664 105.676C259.786 111.839 260.011 116.21 259.338 117.891C257.991 121.365 258.44 137.39 259.786 137.054C260.46 136.942 261.358 134.588 261.919 131.787C262.368 128.873 263.265 126.632 263.939 126.632C264.5 126.632 264.724 126.183 264.387 125.623C263.939 125.063 264.275 123.158 265.061 121.365C266.856 117.106 267.081 114.193 265.734 111.727C264.275 108.814 266.744 101.417 268.652 102.986C271.233 105.228 272.804 113.184 272.579 123.046C272.243 132.347 273.141 137.838 274.712 137.838C276.058 137.838 274.263 100.521 272.804 96.5987C271.682 94.0213 270.672 93.0127 268.764 93.0127C266.632 93.0127 265.959 93.9092 264.836 98.6159C263.265 105.003 260.348 108.477 260.235 104.107C260.123 100.745 257.205 91.78 257.093 94.2454Z" fill="black"/>
<path d="M188.752 113.969C188.976 115.313 190.772 116.21 194.026 116.882C197.954 117.667 198.739 118.227 198.291 119.908C197.281 123.718 198.964 124.39 204.238 122.597C207.044 121.589 209.849 120.356 210.635 119.796C211.308 119.123 215.123 118.339 219.051 117.891L226.121 116.994L214.338 116.21C199.301 115.201 195.822 114.753 193.129 113.296C189.874 111.503 188.303 111.839 188.752 113.969Z" fill="black"/>
</svg>
