<svg width="305" height="297" viewBox="0 0 305 297" fill="none" xmlns="http://www.w3.org/2000/svg">
<path d="M184.22 13.6328C179.259 16.9599 179.909 18.5017 185.196 15.8238C188.368 14.1197 190.483 14.282 193.573 16.3918C197.64 19.232 199.511 23.5328 199.917 31.1607C200.243 38.3828 199.023 43.8197 194.468 55.9918C189.669 68.6509 188.612 71.8156 188.937 73.0328C189.263 74.4123 190.076 72.9517 193.004 64.9181C194.143 61.9968 196.095 56.7222 197.477 53.1517C201.3 43.2517 201.951 40.0869 202.032 31.2418C202.113 24.0197 201.869 22.6402 199.917 18.5017C196.501 11.1984 190.564 9.33201 184.22 13.6328Z" fill="black"/>
<path d="M246.602 19.3943C241.559 24.5066 232.938 42.7648 228.709 57.6148C227.326 62.3213 226.106 67.1902 225.943 68.4885C225.699 70.6795 225.13 71.0041 216.753 73.8443C211.873 75.4672 206.261 77.3336 204.309 77.9016C202.357 78.5508 200.649 79.2812 200.405 79.6869C199.429 81.2287 205.203 80.0926 215.126 76.7656C223.178 74.0877 225.781 73.5197 225.943 74.4123C226.35 76.0353 227.733 75.7107 227.733 74.0066C227.733 72.8705 229.603 71.7344 235.703 69.4623C246.927 65.1615 248.879 64.2689 248.879 63.2139C248.879 62.159 247.659 62.5648 237.167 66.6221C228.627 69.9492 227.326 70.2738 228.139 68.9754C228.383 68.5697 229.359 65.1615 230.335 61.5098C233.426 49.0131 245.463 23.1271 248.147 23.1271C248.798 23.1271 249.855 24.182 250.506 25.5615C252.051 28.7262 251.889 48.1205 250.181 59.2377C249.449 63.4574 248.229 73.1139 247.253 80.7418C245.626 94.618 241.966 116.934 239.526 128.213C238.631 132.514 237.655 134.786 236.354 135.922C234.321 137.707 234.158 139.736 235.785 143.875C236.273 145.173 236.679 147.202 236.679 148.5C236.679 150.772 237.899 152.395 238.957 151.421C239.607 150.691 240.827 141.521 240.746 137.789C240.746 136.166 241.234 132.352 241.966 129.268C242.698 126.266 243.593 121.884 243.999 119.693C246.602 104.924 248.31 93.7254 249.774 81.3098C250.669 73.5197 251.563 66.7844 251.807 66.4598C252.458 65.4049 254.573 37.5713 254.573 30.0246C254.573 22.6402 252.946 17.6902 250.425 17.2033C249.693 17.041 247.985 18.0959 246.602 19.3943Z" fill="black"/>
<path d="M224.805 31.5664C210.246 42.359 193.979 68.732 193.979 81.391C193.979 85.5295 194.223 86.4221 196.175 88.0451C197.395 89.1 200.405 90.723 202.926 91.6156C209.433 94.05 211.303 95.5107 212.361 99C213.581 102.976 211.791 109.143 207.562 115.635C201.299 125.292 165.594 163.025 158.925 167.083C156.322 168.625 146.806 179.985 147.457 180.716C147.701 180.959 149.327 179.985 151.035 178.606C152.743 177.307 155.753 175.279 157.786 174.224C160.633 172.682 161.446 171.871 161.283 170.329C161.202 168.868 163.479 166.19 170.718 159.049C179.095 150.853 185.602 143.875 202.031 125.779C207.237 120.017 213.662 110.198 214.719 106.466C217.159 97.6205 214.719 92.5894 206.667 89.2623C199.266 86.2598 196.826 83.6631 196.826 78.8754C196.907 66.2164 216.021 37.9771 229.278 30.9172C232.043 29.4566 234.239 27.9959 234.239 27.509C234.239 25.6426 230.742 27.1844 224.805 31.5664Z" fill="black"/>
<path d="M135.664 32.7025C132.817 33.7574 132.736 34.8935 135.338 34.8935C137.941 34.8935 138.592 37.0845 137.453 41.5476C136.152 46.173 133.793 50.7984 125.497 64.4312C111.752 87.1525 99.4703 108.657 90.5236 125.779L88.1649 130.242L81.3329 130.648C77.5103 130.891 73.6063 131.54 72.6303 132.108C70.3529 133.325 65.9609 138.519 63.6023 142.739C62.0569 145.498 61.9756 146.066 62.9516 146.066C63.6836 146.066 64.7409 145.011 65.3916 143.793C68.2383 138.357 75.3956 133.893 81.4956 133.893C86.2129 133.893 86.2943 134.299 82.2276 142.252C78.8929 148.743 77.1036 151.016 68.9703 159.049C57.4209 170.491 56.9329 170.897 56.9329 169.193C56.9329 167.164 55.5503 167.813 52.7849 171.221C51.3209 173.007 49.5316 174.63 48.6369 174.873C47.8236 175.198 47.1729 176.09 47.1729 176.983C47.1729 177.875 45.8716 180.472 44.3263 182.825C40.5036 188.587 31.5569 209.036 28.1409 219.748C21.5529 240.44 19.3569 248.068 16.3476 260.159C12.9316 274.198 11.7116 283.611 13.1756 284.503C15.6969 286.045 25.6196 267.625 36.1929 241.82C38.1449 237.113 41.8863 228.917 44.4889 223.562C47.1729 218.206 50.5076 211.471 51.8903 208.549C53.2729 205.628 60.1863 191.427 67.2623 176.902C78.8116 153.45 80.6009 150.204 83.8543 147.526C85.8063 145.903 89.0596 143.063 91.0116 141.197C94.3463 138.275 94.7529 138.032 96.2983 139.087C101.585 142.576 109.149 159.536 109.312 168.381C109.393 170.572 109.881 172.925 110.45 173.493C111.02 174.224 111.426 177.226 111.508 181.608C111.508 185.503 111.589 191.752 111.589 195.566C111.67 203.924 110.694 219.504 109.718 225.59C108.986 230.216 110.044 233.299 110.938 229.08C113.216 218.53 114.354 193.212 113.216 179.174L112.321 168.949L118.421 152.801C121.756 143.956 126.88 130.648 129.808 123.182L135.176 109.63L140.137 106.466C142.902 104.762 148.189 101.84 151.93 99.8927C159.413 96.0787 159.576 96.1599 157.054 103.625C156.16 106.222 154.858 110.523 154.126 113.201C149.572 129.836 138.592 163.593 137.128 165.541C135.826 167.164 135.42 175.279 136.64 175.279C137.128 175.279 137.616 174.792 137.778 174.224C137.941 173.737 140.462 165.541 143.39 156.209C146.318 146.796 149.816 135.516 151.198 131.053C152.5 126.59 155.102 118.151 156.892 112.389C158.6 106.547 160.308 100.542 160.633 99C160.958 97.2148 162.341 95.1861 164.13 93.482L167.14 90.8041L164.781 91.1287L162.504 91.5345L162.992 87.3148C164.049 79.2 164.456 67.6771 163.724 64.9181C162.829 61.591 160.877 60.8607 158.437 63.0517C154.452 66.6222 136.884 97.4582 134.281 105.492C133.468 107.926 131.597 109.468 121.024 116.447C114.273 120.91 105.896 126.834 102.48 129.674L96.1356 134.786L93.2076 133.001C91.5809 132.108 90.2796 131.216 90.2796 131.053C90.2796 129.43 114.68 85.8541 123.708 71.3287C135.664 52.0968 143.309 37.2468 142.984 34.1632C142.821 32.4591 142.252 32.0533 140.3 31.891C138.998 31.8099 136.884 32.2156 135.664 32.7025ZM160.47 68.732C161.121 70.0304 161.853 72.6271 162.178 74.6558C162.748 79.2812 160.877 92.2648 159.332 93.7254C158.681 94.2935 154.94 96.4845 150.873 98.5943C146.888 100.785 142.008 103.544 140.056 104.843C138.104 106.222 136.396 107.115 136.233 106.952C135.664 106.466 146.156 85.5296 150.385 78.7132C154.777 71.6533 158.437 66.541 159.006 66.541C159.25 66.541 159.901 67.5148 160.47 68.732ZM131.028 114.58C129.401 118.151 125.253 128.943 120.048 142.82C114.68 157.345 112.077 164.324 111.67 165.541C111.345 166.271 110.857 165.46 110.45 163.512C107.848 152.395 104.025 143.712 99.6329 138.843L96.8676 135.76L102.724 131.216C109.474 125.941 131.028 111.172 131.922 111.172C132.248 111.172 131.841 112.714 131.028 114.58ZM91.3369 135.598C92.3129 136.166 93.2889 136.652 93.4516 136.815C93.7769 137.058 85.3183 144.93 82.7969 146.715C81.6583 147.526 82.0649 146.147 84.5049 141.278C86.3756 137.626 88.2463 134.705 88.7343 134.705C89.2223 134.705 90.3609 135.111 91.3369 135.598ZM67.2623 173.412C61.7316 184.53 55.3876 197.351 53.1916 202.057C50.9956 206.764 46.5223 216.015 43.1876 222.75C39.9343 229.404 35.2169 239.872 32.7769 245.877C30.3369 251.882 26.1076 261.295 23.3423 266.813C18.9503 275.496 18.1369 276.551 17.3236 275.334C16.7543 274.603 16.2663 272.575 16.2663 270.871C16.2663 262.999 31.3129 212.363 37.0063 201.327C38.1449 199.055 39.7716 195.322 40.7476 192.969C41.6423 190.616 43.3503 187.126 44.4076 185.179C46.1156 182.257 46.6849 181.852 47.6609 182.663C48.3929 183.231 49.1249 183.312 49.5316 182.907C49.9383 182.501 52.9476 178.849 56.3636 174.873C63.3583 166.515 75.7209 153.369 76.6969 153.369C77.0223 153.369 72.7929 162.376 67.2623 173.412Z" fill="black"/>
<path d="M101.747 48.4451C101.341 49.2566 99.2261 54.8557 96.9487 60.8607C94.6714 66.8656 91.1741 75.4672 89.0594 79.8492C87.0261 84.3123 84.0981 91.3721 82.5527 95.673C79.3807 104.843 75.7207 113.688 74.8261 114.824C73.7687 116.122 73.4434 125.292 74.4194 125.698C75.8021 126.266 77.9981 121.559 78.1607 117.664C78.3234 115.635 79.9501 109.793 81.9021 104.68C83.8541 99.568 85.3994 95.0238 85.3994 94.618C85.3994 94.2123 87.7581 88.6943 90.6047 82.4459C94.6714 73.682 104.106 49.0131 104.106 47.309C104.106 46.4164 102.398 47.309 101.747 48.4451Z" fill="black"/>
<path d="M182.511 55.7483C182.267 57.0467 181.047 61.2664 179.746 65.3237C178.526 69.3 176.493 76.441 175.273 81.1475C174.053 85.8541 172.182 92.5893 171.043 96.1598C167.953 106.303 159.657 139.33 158.518 146.309C157.786 150.853 157.705 152.801 158.355 153.45C159.738 154.829 161.202 151.34 161.446 146.552C161.527 144.28 162.259 139.655 162.991 136.328C165.838 124.561 170.067 108.17 173.239 97.377C183.731 61.1852 185.602 53.5574 183.894 53.5574C183.406 53.5574 182.837 54.5311 182.511 55.7483Z" fill="black"/>
</svg>
